<?xml version="1.0" encoding="UTF-8"?>
<svg width="600px" height="400px" viewBox="0 0 600 400" version="1.1" xmlns="http://www.w3.org/2000/svg" xmlns:xlink="http://www.w3.org/1999/xlink">
    <title>Startup Collaboration</title>
    <g id="Page-1" stroke="none" stroke-width="1" fill="#f6f8f9" fill-rule="evenodd">
        <g id="Startup-Collaboration" transform="translate(0.000000, 1.000000)">
            <path d="M143.913113,330.449603 C71.4572946,330.449603 41.8868873,271.300076 41.8868873,205.465985 C41.8868873,139.631893 70.9607816,99.097542 108.443016,99.097542 C145.92525,99.097542 135.278104,138.467206 179.134953,138.467206 C222.991802,138.467206 246.743473,45.4543817 309.546971,45.4543817 C372.350468,45.4543817 324.605166,133.122076 380.176844,133.122076 C435.748522,133.122076 498.141856,111.064183 498.141856,201.060351 C498.141856,291.056519 609.971515,333.296015 526.382832,333.296015 C442.794149,333.296015 143.913113,330.449603 143.913113,330.449603 Z" id="bg_4_" fill="#F3F9FF" fill-rule="nonzero"></path>
            <g id="plant_27_" transform="translate(13.900000, 248.600000)" fill-rule="nonzero">
                <path d="M12.8385,80.7246 C13.0761,75.447 27.1665,75.7287 28.0134,72.594 C28.8603,69.4593 6.9453,59.7267 8.1432,55.0566 C9.3411,50.3856 21.2103,57.9609 23.2398,50.2371 C24.6078,45.0279 -5.8158,39.384 2.0835,29.0853 C6.2586,23.6421 15.0336,34.9272 16.7562,32.9499 C20.781,28.3293 3.3462,10.8054 12.9393,6.5457 C21.2265,2.8512 23.2821,26.73 29.9961,27.0594 C32.6151,27.1881 30.1185,12.9438 36.9495,13.5738 C43.7796,14.2038 39.0051,39.9465 41.1804,40.1859 C43.3557,40.4253 47.1429,31.4991 51.4134,33.7365 C55.6848,35.9739 49.0086,60.4953 51.9039,61.965 C54.7992,63.4356 64.0233,52.7805 68.103,56.1375 C72.1827,59.4945 66.9141,85.6305 50.6511,91.314 C35.541,99.5886 12.6009,86.0022 12.8385,80.7246 Z" id="Path" fill="#FFCB01"></path>
                <path d="M48.3759,90.8478 C48.5712,90.7605 48.6873,90.5481 48.6468,90.3312 C41.5017,51.228 15.5133,10.9953 15.2496,10.5948 C15.1074,10.3752 14.7951,10.2636 14.598,10.4562 C14.3766,10.5948 14.3136,10.89 14.4594,11.1078 C14.7186,11.5092 40.6053,51.5853 47.7198,90.5004 C47.7648,90.7551 48.0114,90.9288 48.2679,90.8784 C48.3048,90.8712 48.3417,90.8631 48.3759,90.8478 Z" id="Path" fill="#F0B701"></path>
                <path d="M32.4387,44.1639 C32.5602,44.1099 32.6718,44.0523 32.787,43.9929 C38.9835,40.428 36.4788,21.1284 36.3672,20.3049 C36.333,20.0457 36.0963,19.8675 35.8362,19.9026 C35.5635,19.9431 35.3979,20.1708 35.4285,20.4309 C35.4528,20.6217 37.9674,39.9249 32.3145,43.1676 C32.2227,43.2243 32.1282,43.2747 32.0265,43.3197 C26.019,45.9927 7.4304,32.9832 7.2414,32.8491 C7.0272,32.6943 6.7437,32.7474 6.5817,32.9652 C6.4332,33.1767 6.4827,33.4701 6.6978,33.6249 C7.4934,34.1856 25.9155,47.0664 32.4387,44.1639 Z" id="Path" fill="#F0B701"></path>
                <path d="M41.7717,64.305 C46.7406,62.0946 48.6099,42.5376 48.6873,41.7033 C48.7089,41.4432 48.5181,41.2128 48.2607,41.1903 C48.0006,41.1768 47.7738,41.3586 47.745,41.6214 C47.232,47.1267 45.0936,61.7922 41.3865,63.4419 C36.8433,65.4633 18.7497,58.554 18.5706,58.4883 C18.324,58.3875 18.0477,58.5108 17.9568,58.761 C17.8632,59.0049 17.9829,59.2749 18.2268,59.3685 C18.9882,59.6601 36.8739,66.4839 41.7717,64.305 Z" id="Path" fill="#F0B701"></path>
                <path d="M48.7881,83.6739 C56.907,80.0622 62.4501,65.3364 62.7012,64.6668 C62.7885,64.4175 62.6652,64.1493 62.4177,64.0575 C62.1774,63.9702 61.9038,64.0836 61.8102,64.3356 C61.7499,64.5084 55.3266,81.6057 46.7055,83.3634 C37.9089,85.2165 21.051,82.5012 20.88,82.4715 C20.6235,82.44 20.3841,82.611 20.34,82.8657 C20.2959,83.1195 20.4732,83.3643 20.7315,83.4102 C21.4272,83.5209 37.9305,86.1759 46.9008,84.294 C47.5434,84.1545 48.1743,83.9475 48.7881,83.6739 Z" id="Path" fill="#FFCB01"></path>
                <path d="M27.0729,65.7711 C28.9296,61.2144 40.1346,66.4497 41.8032,63.9936 C43.4718,61.5366 28.9764,45.2241 31.4109,41.5413 C33.8454,37.8585 40.9689,48.7197 45.0333,42.6465 C47.7738,38.5506 25.1685,22.8204 34.7508,16.5618 C39.8151,13.2534 43.2873,26.2809 45.2925,25.1523 C49.977,22.5144 41.5332,0.936 50.5674,0.5859 C58.3758,0.27 52.4871,21.9933 57.7647,24.6591 C59.823,25.6986 62.3187,12.2913 67.5954,15.2631 C72.8712,18.234 60.9192,39.1788 62.5878,40.1589 C64.2564,41.139 70.1091,34.6311 72.8262,38.1105 C75.5433,41.5899 62.4519,60.786 64.3095,63.1035 C66.1662,65.421 76.923,59.3172 79.1343,63.7128 C81.3447,68.1084 68.8725,89.2233 54.0423,88.4646 C39.3165,90.3924 25.2162,70.3278 27.0729,65.7711 Z" id="Path" fill="#61DDA0"></path>
                <path d="M52.3629,87.2496989 C52.5474,87.2424 52.7067,87.0957 52.7436,86.8914 C59.3586,49.9815 51.2253,5.4099 51.1407,4.9653 C51.0957,4.7223 50.8806,4.5135 50.6619,4.6134 C50.4405,4.6575 50.2974,4.8942 50.3451,5.1372 C50.4261,5.5827 58.527,49.9797 51.9471,86.7132 C51.9021,86.9535 52.0452,87.1929 52.2675,87.2397 C52.299,87.2451 52.3314,87.2496989 52.3629,87.2496989 Z" id="Path" fill="#2CCD7F"></path>
                <path d="M54.324,40.563 C54.4383,40.5585 54.5463,40.5468 54.657,40.536 C60.7491,39.5946 64.8333,21.7395 65.0034,20.9763 C65.0574,20.736 64.9242,20.4957 64.7055,20.4345 C64.4742,20.3733 64.2699,20.5146 64.2123,20.7549 C64.1718,20.9313 60.0948,38.7936 54.54,39.6432 C54.4482,39.6612 54.3564,39.6711 54.261,39.6756 C48.6018,39.8997 37.8081,21.8826 37.6983,21.6981 C37.575,21.4857 37.3311,21.4326 37.1331,21.5667 C36.9477,21.6999 36.8946,21.9753 37.0179,22.1877 C37.4769,22.9608 48.1788,40.806 54.324,40.563 Z" id="Path" fill="#2CCD7F"></path>
                <path d="M55.4472,61.5744 C60.1272,61.389 67.7997,44.856 68.1246,44.1504 C68.2245,43.929 68.1435,43.659 67.9446,43.5483 C67.7403,43.4439 67.5009,43.524 67.3956,43.7454 C65.2473,48.4047 58.9041,60.5421 55.4112,60.6798 C51.1308,60.849 38.8089,48.3705 38.6865,48.249 C38.52,48.0735 38.2599,48.0834 38.1078,48.2715 C37.9557,48.4524 37.9665,48.7323 38.133,48.9006 C38.6505,49.4271 50.8338,61.7571 55.4472,61.5744 Z" id="Path" fill="#2CCD7F"></path>
                <path d="M54.9585,81.0882 C62.6067,80.7858 71.6976,69.8004 72.1107,69.3009 C72.2592,69.1128 72.2448,68.8329 72.0756,68.6646 C71.91,68.5026 71.6553,68.5062 71.5005,68.6943 C71.397,68.8248 60.8526,81.5832 53.3871,80.0784 C45.7506,78.5943 33.0948,70.2405 32.9679,70.1541 C32.7726,70.0353 32.5269,70.1019 32.4108,70.3089 C32.2947,70.5168 32.3604,70.794 32.553,70.9263 C33.0759,71.2701 45.4671,79.4448 53.2503,80.9649 C53.8092,81.0702 54.3798,81.1107 54.9585,81.0882 Z" id="Path" fill="#2CCD7F"></path>
                <path d="M94.9005,80.7921 C95.0976,75.5127 81.0315,74.6352 80.4456,71.4411 C79.8597,68.247 102.5001,60.3495 101.691,55.5966 C100.8819,50.8437 88.4286,57.4164 87.0417,49.5522 C86.1066,44.2485 116.8911,41.1246 109.8648,30.2112 C106.1514,24.4431 96.4782,34.9686 94.9239,32.8563 C91.2924,27.9207 110.1087,11.889 100.8981,6.8553 C92.943,2.4921 88.9308,26.1216 82.2123,25.8975 C79.5924,25.8102 83.2509,11.8197 76.3911,11.8854 C69.5322,11.9511 72.1737,37.9998 69.9858,38.0601 C67.7979,38.1195 64.7577,28.9125 60.3171,30.7917 C55.8765,32.6709 60.5142,57.6576 57.5073,58.8843 C54.5013,60.1119 46.1835,48.7341 41.8419,51.7446 C37.5003,54.7551 37.3905,84.8916 53.1315,91.8927 C67.5126,101.3814 94.7034,86.0715 94.9005,80.7921 Z" id="Path" fill="#8484EF"></path>
                <path d="M58.6512,87.9597 C58.4631,87.8571 58.3659,87.6348 58.4235,87.4224 C68.7591,49.0383 97.9677,11.079 98.2629,10.7019 C98.4222,10.4949 98.7426,10.4094 98.9235,10.6173 C99.1323,10.7739 99.171,11.0727 99.0081,11.2779 C98.7165,11.6568 69.6231,49.4685 59.3334,87.6672 C59.2677,87.9174 59.0076,88.0695 58.7556,87.9993 C58.7196,87.9885 58.6836,87.9768 58.6512,87.9597 Z" id="Path" fill="#7266D5"></path>
                <path d="M78.372,42.7428 C78.255,42.6789 78.1488,42.6123 78.039,42.5439 C72.1566,38.4813 76.2399,19.4535 76.4181,18.6426 C76.4739,18.387 76.7241,18.2295 76.9797,18.2853 C77.2479,18.3483 77.3946,18.5886 77.3424,18.846 C77.3019,19.0341 73.2096,38.0655 78.5763,41.7618 C78.6627,41.8266 78.7536,41.8842 78.8508,41.9373 C84.618,45.0945 104.2137,33.6582 104.4126,33.5403 C104.6394,33.4035 104.9175,33.48 105.0606,33.7095 C105.1911,33.9327 105.1173,34.2207 104.8914,34.3575 C104.0544,34.8498 84.6351,46.1718 78.372,42.7428 Z" id="Path" fill="#7266D5"></path>
                <path d="M67.4154,62.0487 C62.6454,59.4369 62.3898,39.7926 62.3808,38.9547 C62.3808,38.6937 62.5905,38.4804 62.8479,38.4777 C63.1089,38.4858 63.3195,38.6856 63.3258,38.9502 C63.3843,44.4789 64.3095,59.2713 67.869,61.2198 C72.2313,63.6075 90.8316,58.2093 91.0152,58.1589 C91.269,58.0788 91.5345,58.2246 91.6047,58.482 C91.6776,58.7322 91.5363,58.9914 91.2852,59.0652 C90.504,59.2929 72.1179,64.6236 67.4154,62.0487 Z" id="Path" fill="#7266D5"></path>
                <path d="M58.8303,80.7759 C51.0354,76.5081 46.7226,61.3773 46.5264,60.6888 C46.4598,60.4332 46.6047,60.1758 46.8585,60.1047 C47.1051,60.0381 47.3679,60.1731 47.4408,60.4323 C47.4867,60.6096 52.4826,78.1767 60.93,80.6373 C69.5448,83.2068 86.5683,81.8874 86.7411,81.8721 C86.9994,81.8622 87.2235,82.0521 87.2469,82.3086 C87.2703,82.566 87.0732,82.7946 86.8113,82.8198 C86.1084,82.8729 69.4431,84.1617 60.6582,81.549 C60.0309,81.3573 59.4198,81.0981 58.8303,80.7759 Z" id="Path" fill="#7266D5"></path>
                <polygon id="Path" fill="#DAE7FF" points="75.123 97.3755 74.6694 101.1564 71.343 131.4 33.5376 131.4 31.0428 109.0197 29.7576 97.3755"></polygon>
                <polygon id="Path" fill="#AEC1E8" points="75.123 97.3755 74.6694 101.1564 31.0428 109.0197 29.7576 97.3755"></polygon>
                <polygon id="Path" fill="#C3D3F3" points="78.9039 101.1564 25.9767 101.1564 22.1967 86.0346 82.6839 86.0346"></polygon>
            </g>
            <g id="plant_30_" transform="translate(487.142114, 199.648855)" fill-rule="nonzero">
                <path d="M5.69370884,110.480427 C1.22149393,100.003649 -5.44994974,85.1599695 8.18526863,76.3946412 C21.820487,67.629313 9.37258232,62.4391145 8.93003813,49.7338473 C8.48749393,37.0294809 22.405149,33.7642137 21.9886898,27.7399084 C21.5722305,21.7156031 20.8814298,11.0631756 22.1658873,6.51792366 C24.3156447,-1.08812214 40.4046447,-4.54164885 42.0461958,16.8749008 C43.0778995,30.3323053 44.4648977,38.4580916 51.6319549,48.0575267 C58.7990121,57.6569618 43.011338,67.8067634 43.303669,75.5344122 C43.596,83.2620611 51.3747036,82.1171908 50.5237955,98.495771 C49.6728873,114.874351 38.923201,127.258947 28.702409,126.528427 C21.7611213,126.031206 9.77644887,120.043832 5.69370884,110.480427 Z" id="Path" fill="#DCEEFD"></path>
                <path d="M32.0304853,132.067221 C32.3453033,132.067221 32.62774,131.847435 32.695201,131.526763 C32.9389601,130.365679 32.222974,128.137191 30.7100485,123.609053 C28.1591231,115.976885 24.3066499,104.442611 25.1530607,93.8487328 C25.6837539,87.2092061 27.3226066,80.1310076 28.9083899,73.2879084 C31.1759792,63.4975115 33.3176412,54.2502748 32.067364,47.1459542 C30.664175,39.1687939 31.6068302,28.8379389 32.1708042,22.6650076 C32.5009133,19.0529466 32.650227,17.2838473 32.4586378,16.5281069 C32.3659913,16.1623969 31.9954055,15.9390076 31.6320156,16.0362901 C31.2677262,16.1290687 31.048253,16.4992824 31.1408995,16.8640916 C31.2839168,17.4270687 31.0671421,19.7969771 30.8170867,22.5407023 C30.2468163,28.7811908 29.2924679,39.2264427 30.7289376,47.3837557 C31.9315425,54.2142443 29.8195633,63.3299695 27.5843553,72.9807481 C25.9877782,79.8724885 24.3363328,87.000229 23.7975442,93.7406412 C22.9295459,104.612855 26.8359879,116.305664 29.4201941,124.042321 C30.5598354,127.45171 31.5438666,130.397206 31.36487,131.245725 C31.2875147,131.614137 31.5231785,131.976244 31.8901664,132.052809 C31.9360399,132.061817 31.9837123,132.067221 32.0304853,132.067221 Z" id="Path" fill="#D0E7FE"></path>
                <path d="M33.5416118,60.9825802 C36.9731282,60.9825802 39.5015667,57.9352977 40.4891958,55.9752366 C40.6582981,55.6401527 40.5242756,55.2303053 40.1887695,55.0609618 C39.8550624,54.8880153 39.444,55.0249313 39.2757972,55.3600153 C39.1552669,55.5951145 36.2796291,61.1357099 31.634714,59.2215878 C31.2848163,59.0756641 30.8899445,59.2432061 30.7469272,59.5918015 C30.6039099,59.9403969 30.7694142,60.3376336 31.1166135,60.480855 C31.9648232,60.8303511 32.7761542,60.9825802 33.5416118,60.9825802 Z" id="Path" fill="#D0E7FE"></path>
                <path d="M31.6805875,49.7131298 C31.9972045,49.7131298 32.2814402,49.4897405 32.3462028,49.1681679 C32.4208596,48.7997557 32.1824974,48.4403511 31.8146101,48.364687 C31.7426516,48.3502748 24.597182,46.827084 22.6030347,40.6622595 C22.4879012,40.3055573 22.1065217,40.1100916 21.7458302,40.2244885 C21.3887366,40.3397863 21.1935494,40.7244122 21.3086828,41.082916 C23.5519861,48.0151908 31.2200537,49.6347634 31.544766,49.7005191 C31.5906395,49.7095267 31.636513,49.7131298 31.6805875,49.7131298 Z" id="Path" fill="#D0E7FE"></path>
                <path d="M24.4793501,94.4756641 C24.8841161,94.4756641 34.0732045,94.3756794 36.3156083,86.7272977 C36.4208475,86.3669924 36.2148666,85.987771 35.854175,85.8823817 C35.4898856,85.7769924 35.1157019,85.9850687 35.0104627,86.3435725 C33.0217123,93.1308244 24.8085598,93.1281221 24.482948,93.1137099 C24.1096638,93.117313 23.7993432,93.4091603 23.7956954,93.7865802 C23.7912478,94.1612977 24.0916742,94.4702595 24.4667574,94.4756641 C24.4667574,94.4756641 24.4712548,94.4756641 24.4793501,94.4756641 Z" id="Path" fill="#D0E7FE"></path>
                <path d="M25.0406256,105.69287 C25.3059723,105.69287 25.5596256,105.536137 25.6684627,105.274015 C25.813279,104.928122 25.6495737,104.529084 25.3032738,104.384061 C25.1647539,104.325511 11.4584766,98.4867634 11.1607487,89.9574351 C11.1472565,89.5827176 10.8234437,89.3043817 10.4573553,89.2998779 C10.0822721,89.3133893 9.78814211,89.6286565 9.80163432,90.0051756 C10.1290451,99.4073435 24.1807227,105.389313 24.7779775,105.639725 C24.8643276,105.674855 24.9533761,105.69287 25.0406256,105.69287 Z" id="Path" fill="#D0E7FE"></path>
            </g>
            <g id="plant_29_" transform="translate(450.263432, 244.687023)" fill-rule="nonzero">
                <path d="M32.3875789,72.7546565 C35.3450693,65.8268855 39.7561196,56.0112672 30.7397314,50.214855 C21.7233432,44.4184427 29.9544853,40.9865344 30.2477158,32.5851145 C30.5409463,24.1836947 21.3365667,22.0254656 21.6127071,18.0413893 C21.887948,14.0582137 22.3448839,7.01424427 21.4957747,4.00839695 C20.0736967,-1.02146565 9.43554593,-3.30490076 8.34987348,10.8569008 C7.66806759,19.755542 6.75059792,25.1285954 2.01123744,31.4762748 C-2.72812305,37.8239542 7.71124263,44.535542 7.5187539,49.6455725 C7.32536568,54.7556031 2.18213865,53.9989618 2.74431369,64.8288397 C3.30648873,75.6587176 10.4150797,83.848458 17.173773,83.3656489 C21.7620208,83.037771 29.6873397,79.078916 32.3875789,72.7546565 Z" id="Path" fill="#8AE6B9"></path>
                <path d="M14.9718458,87.0290534 C14.7640659,87.0290534 14.576974,86.8840305 14.532,86.6723511 C14.3709931,85.904 14.8441196,84.4312519 15.8443414,81.4371145 C17.5308666,76.3901374 20.0790936,68.763374 19.5187175,61.7572366 C19.1679203,57.366916 18.0840468,52.6865496 17.035253,48.1611145 C15.5358198,41.6864275 14.1191386,35.5720458 14.9466603,30.8745649 C15.8749237,25.5996947 15.2506846,18.7683053 14.8782998,14.6860458 C14.6597262,12.2981221 14.5607834,11.1280305 14.6885095,10.6281069 C14.7496742,10.3858015 14.9943328,10.2380763 15.2353934,10.3029313 C15.4764541,10.3641832 15.6212704,10.6091908 15.5601057,10.8496947 C15.4656603,11.2217099 15.6086776,12.7890382 15.774182,14.6031756 C16.1510641,18.7295725 16.7824991,25.636626 15.8326482,31.0303969 C15.0375078,35.5477252 16.4335009,41.5747328 17.9122461,47.9566412 C18.9682357,52.5145038 20.0602045,57.2272977 20.4163986,61.6842748 C20.9902669,68.8732672 18.4069601,76.6054198 16.697948,81.7217557 C15.9441837,83.9763664 15.2938596,85.9238168 15.4116915,86.4849924 C15.4629619,86.7290992 15.3073518,86.9678015 15.0644922,87.019145 C15.0339099,87.0254504 15.0024281,87.0290534 14.9718458,87.0290534 Z" id="Path" fill="#44D690"></path>
                <path d="M13.9725234,40.0236183 C11.7040347,40.0236183 10.0319012,38.0086107 9.3779792,36.7124122 C9.26554419,36.4908244 9.35459272,36.2196947 9.5767643,36.108 C9.7980364,35.9936031 10.0687799,36.0845802 10.1803154,36.3061679 C10.2603692,36.462 12.16187,40.1254046 15.2335945,38.8598321 C15.4647608,38.7634504 15.7265095,38.8742443 15.8209549,39.1039389 C15.9154003,39.3336336 15.8056638,39.5975573 15.5762964,39.6912366 C15.0150208,39.9236336 14.4789307,40.0236183 13.9725234,40.0236183 Z" id="Path" fill="#44D690"></path>
                <path d="M15.2030121,32.5716031 C14.9934333,32.5716031 14.8063414,32.4238779 14.7631664,32.2112977 C14.713695,31.9671908 14.871104,31.7302901 15.1148631,31.6798473 C15.1625355,31.6699389 19.8875043,30.6628855 21.2061421,26.5869313 C21.2825979,26.3509313 21.5344523,26.2221221 21.7728146,26.2977863 C22.0093778,26.3743511 22.1380035,26.6283664 22.0615477,26.8652672 C20.578305,31.4492519 15.5079359,32.5202595 15.2929601,32.5634962 C15.2623778,32.5689008 15.232695,32.5716031 15.2030121,32.5716031 Z" id="Path" fill="#44D690"></path>
                <path d="M19.9657591,62.1715878 C19.697714,62.1715878 13.6217262,62.1058321 12.1384835,57.0480458 C12.0683241,56.8093435 12.2050451,56.5589313 12.4434073,56.4895725 C12.6844679,56.4202137 12.931825,56.5571298 13.0019844,56.7949313 C14.3170243,61.2825344 19.7480849,61.2807328 19.9630607,61.2717252 C20.2095182,61.2744275 20.4145997,61.4671908 20.4173254,61.7167023 C20.4199965,61.9644122 20.2221109,62.1688855 19.9738544,62.1724885 C19.9729549,62.1715878 19.9702565,62.1715878 19.9657591,62.1715878 Z" id="Path" fill="#44D690"></path>
                <path d="M19.5933744,69.5884733 C19.4179757,69.5884733 19.2506724,69.4848855 19.178714,69.3110382 C19.0833692,69.0822443 19.1913068,68.8183206 19.4206742,68.7228397 C19.5124211,68.6841069 28.5755823,64.8234351 28.7725685,59.182855 C28.7815633,58.935145 28.9956395,58.7513893 29.2375997,58.748687 C29.4858562,58.7576947 29.6801438,58.965771 29.671149,59.2152824 C29.4543744,65.4323511 20.1627452,69.3885038 19.7678735,69.5542443 C19.7103068,69.5767634 19.6518406,69.5884733 19.5933744,69.5884733 Z" id="Path" fill="#44D690"></path>
            </g>
            <g id="rocket" transform="translate(160.712702, 24.000000)" fill-rule="nonzero">
                <path d="M36.6502149,58.7261679 C24.5045355,58.7261679 14.6597262,78.4456794 14.6597262,102.770794 L14.6597262,297.30055 L36.6502149,297.30055 L58.6407036,297.30055 L58.6407036,102.770794 C58.6416031,78.4456794 48.7958943,58.7261679 36.6502149,58.7261679 Z" id="Path" fill="#355AA2"></path>
                <polygon id="Path" fill="#355AA2" points="183.256471 108.177176 161.265983 108.177176 161.265983 297.302351 183.256471 297.302351 205.246061 297.302351 205.246061 108.177176"></polygon>
                <rect id="Rectangle" fill="#224380" x="14.6597262" y="168.837282" width="43.9818769" height="7.34032061"></rect>
                <rect id="Rectangle" fill="#224380" x="14.6597262" y="183.518824" width="43.9818769" height="7.34032061"></rect>
                <rect id="Rectangle" fill="#224380" x="161.265083" y="168.837282" width="43.9818769" height="7.34032061"></rect>
                <rect id="Rectangle" fill="#224380" x="161.265083" y="183.518824" width="43.9818769" height="7.34032061"></rect>
                <path d="M109.953343,0 C109.952444,0 109.950645,0 109.949745,0 L109.949745,0 C80.3811369,0.00720610687 58.6416031,58.5307023 58.6416031,88.0892519 L58.6416031,264.266855 C71.1578683,264.266855 148.872946,264.266855 161.265983,264.266855 L161.265983,88.0892519 C161.265983,55.6554656 138.292362,0 109.953343,0 Z" id="Path" fill="#224380"></path>
                <polygon id="Path" fill="#DAE7FF" points="153.93522 352.356107 65.9714662 352.356107 80.6320919 315.652702 139.274594 315.652702"></polygon>
                <polygon id="Path" fill="#C3D3F3" points="142.206899 322.993023 139.274594 315.652702 80.6320919 315.652702 77.6997868 322.993023"></polygon>
                <path d="M202.732014,266.78629 C177.6716,241.690122 161.265983,209.280656 161.265983,173.789679 L161.265983,161.496962 L58.6416031,161.496962 L58.6416031,173.789679 C58.6416031,209.280656 42.2350867,241.691023 17.1755719,266.78629 C6.56350607,277.412595 2.84217094e-14,292.094137 2.84217094e-14,308.311481 L58.6425026,308.311481 L161.266882,308.311481 L219.909385,308.311481 C219.909385,292.094137 213.34408,277.412595 202.732014,266.78629 Z" id="Path" fill="#1B90FB"></path>
                <path d="M109.953343,29.363084 C81.6143241,29.363084 58.6416031,88.5207176 58.6416031,161.496962 L58.6416031,286.289618 C58.6416031,302.506061 71.7695147,315.652702 87.9628544,315.652702 L131.944731,315.652702 C148.138071,315.652702 161.265983,302.506061 161.265983,286.289618 L161.265983,161.496962 C161.265983,88.5207176 138.292362,29.363084 109.953343,29.363084 Z" id="Path" fill="#DCEEFD"></path>
                <path d="M58.6416031,161.496962 L58.6416031,286.289618 C58.6416031,302.506061 71.7695147,315.652702 87.9628544,315.652702 L109.953343,315.652702 L109.953343,29.363084 C81.6143241,29.363084 58.6416031,88.5207176 58.6416031,161.496962 Z" id="Path" fill="#F3F9FF"></path>
                <path d="M160.815343,315.652702 L59.0913432,315.652702 C58.8430867,315.652702 58.6416031,315.450931 58.6416031,315.202321 L58.6416031,264.267756 L161.265983,264.267756 L161.265983,315.202321 C161.265983,315.450931 161.0636,315.652702 160.815343,315.652702 Z" id="Path" fill="#224380"></path>
                <polygon id="Path" fill="#183168" points="109.953343 249.585313 102.622581 264.266855 102.622581 322.993023 109.953343 337.674565 117.283206 322.993023 117.283206 264.266855"></polygon>
                <rect id="Rectangle" fill="#AEC1E8" x="65.9714662" y="337.674565" width="87.9637539" height="14.681542"></rect>
                <rect id="Rectangle" fill="#224380" x="58.6416031" y="205.540687" width="102.62438" height="7.34032061"></rect>
                <rect id="Rectangle" fill="#224380" x="14.6597262" y="102.770794" width="43.9818769" height="7.34032061"></rect>
                <rect id="Rectangle" fill="#224380" x="161.265983" y="102.772595" width="43.980078" height="7.33401527"></rect>
                <path d="M125.472972,83.9852061 C122.79612,77.7699389 116.711137,73.7480305 109.953343,73.7480305 C103.195549,73.7480305 97.1042704,77.7627328 94.4409099,83.9852061 L80.9684974,78.1932977 C85.9435217,66.5725496 97.3183466,59.0673893 109.953343,59.0673893 C122.573948,59.0673893 133.948773,66.5734504 138.930993,78.1932977 L125.472972,83.9852061 Z" id="Path" fill="#224380"></path>
            </g>
            <g id="编组" transform="translate(245.000000, 137.000000)" fill="#224380" fill-rule="nonzero">
                <path d="M46.5755522,0 L3.9030848,0 C2.86577554,0 1.87113228,0.412913111 1.13881091,1.14756671 C0.40648955,1.8822203 -0.00326413549,2.87817148 1.95853094e-05,3.91547547 L1.95853094e-05,31.075202 C-0.00326412509,32.112506 0.406489565,33.1084571 1.13881093,33.8431107 C1.87113229,34.5777643 2.86577555,34.9906774 3.9030848,34.9906774 L46.5755522,34.9906774 C48.7380095,34.9906774 50.4910276,33.2376594 50.4910276,31.075202 L50.4910276,3.91547547 C50.4910276,1.75301809 48.7380096,0 46.5755522,0 Z M41.777541,11.7091361 L28.2909033,22.461156 L20.8328548,14.5059043 L10.1429853,24.922312 C9.93880279,25.1168084 9.66672382,25.2238559 9.38475042,25.2207046 C9.08434086,25.2172764 8.79956583,25.0861895 8.60165534,24.8601616 C8.17963875,24.437894 8.17963875,23.7535292 8.60165534,23.3312616 L20.8452849,11.385954 L28.4649244,19.4779366 L40.397802,9.9689248 C40.8709218,9.60494975 41.5474806,9.68195645 41.9267019,10.1429459 C42.1195159,10.3683522 42.2125209,10.6623995 42.1843984,10.9576864 C42.1562758,11.2529734 42.0094373,11.5241784 41.777541,11.7091361 L41.777541,11.7091361 Z" id="形状"></path>
                <path d="M11.8459064,37.6631448 L38.6451606,37.6631448 C39.316385,37.6631448 39.6519972,37.998757 39.6519972,38.6699814 L39.6519972,38.9931634 C39.6519972,39.6643878 39.316385,40 38.6451606,40 L11.8459064,40 C11.1746821,40 10.8390699,39.6643878 10.8390699,38.9931634 L10.8390699,38.6699814 C10.8390699,37.998757 11.1746821,37.6631448 11.8459064,37.6631448 L11.8459064,37.6631448 Z" id="路径"></path>
                <polygon id="路径" points="23.9652352 35.0031075 26.5009717 35.0031075 26.5009717 38.1852082 23.9652352 38.1852082"></polygon>
            </g>
            <text id="IMS" font-family="PingFangSC-Semibold, PingFang SC" font-size="16" font-weight="500" fill="#224380">
                <tspan x="256.012" y="198">IMS</tspan>
            </text>
            <g id="pie_chart" transform="translate(69.349481, 157.448980)" fill-rule="nonzero">
                <g id="Group" transform="translate(46.782007, 0.000000)">
                    <path d="M2.32650519,0.473668367 C15.3651903,0.473668367 27.1695502,3.05813265 35.8494118,7.18066837 L0.800692042,24.6586709 L0.800692042,0.502484694 C1.34588235,0.473668367 1.81820069,0.473668367 2.32650519,0.473668367 Z" id="Path" fill="#1B90FB"></path>
                    <polygon id="Path" fill="#1277D7" points="35.8503114 7.17976786 35.8503114 19.3348546 0.801591696 36.8137577 0.801591696 24.6586709"></polygon>
                </g>
                <g id="Group" transform="translate(0.000000, 11.706633)">
                    <path d="M47.5835986,0.887903061 L47.5835986,25.0729056 L14.0966782,41.7962806 C5.81536332,37.4702296 0.694532872,31.5763903 0.694532872,25.0729056 C0.694532872,18.5406046 5.81536332,12.6755816 14.1326644,8.32071429 C22.5957093,3.90731378 34.4351557,1.09051786 47.5835986,0.887903061 Z" id="Path" fill="#FFD255"></path>
                    <polygon id="Path" fill="#FFBC00" points="47.5835986 25.0729056 47.5835986 37.2279923 14.0966782 53.9513673 14.0966782 41.7962806"></polygon>
                    <path d="M1.62387543,29.8212959 C1.01480969,28.2868265 0.694532872,26.6983265 0.694532872,25.0729056 L0.694532872,25.0729056 L0.694532872,37.2279923 C0.694532872,43.731477 5.81536332,49.6253163 14.0966782,53.9513673 L14.0966782,41.7962806 C7.88546713,38.5517423 3.45287197,34.4256046 1.62387543,29.8212959 Z" id="Path" fill="#FFC31B"></path>
                </g>
                <g id="Group" transform="translate(50.380623, 20.711735)">
                    <path d="M35.2781315,0.506987245 C44.4671972,4.94920408 50.2051903,11.1330077 50.2051903,18.0147066 C50.2051903,24.8666888 44.4662976,31.0802092 35.2781315,35.4927092 L0.265397924,18.0147066 L35.2781315,0.506987245 Z" id="Path" fill="#DAE7FF"></path>
                    <path d="M35.2781315,35.4927092 L35.2781315,35.4927092 L35.2781315,47.6477959 C42.5113495,44.1736276 50.2051903,38.1969413 50.2051903,30.1697934 L50.2051903,18.0147066 C50.2051903,26.0679694 42.5014533,32.0239439 35.2781315,35.4927092 Z" id="Path" fill="#AEC1E8"></path>
                    <polygon id="Path" fill="#C3D3F3" points="35.2781315 35.4927092 35.2781315 47.6477959 0.265397924 30.1697934 0.265397924 18.0147066"></polygon>
                    <path d="M31.1343253,20.6901224 C31.150519,19.727477 31.2593772,18.9656454 31.462699,18.4082296 C31.6651211,17.8490128 32.0780623,17.2312628 32.7015225,16.550477 L34.2930104,14.9115485 C34.9731488,14.1434133 35.313218,13.3185459 35.313218,12.4378469 C35.313218,11.5886658 35.0901038,10.9240893 34.6447751,10.4423163 C34.1994464,9.96234439 33.5516955,9.72100765 32.7015225,9.72100765 C31.8756401,9.72100765 31.2116955,9.93983163 30.7096886,10.3774796 C30.2076817,10.8151276 29.9566782,11.4031607 29.9566782,12.1406786 L27.7093426,12.1406786 C27.7255363,10.8277347 28.1933564,9.76783418 29.1119031,8.96187755 C30.0313495,8.15502041 31.2269896,7.75249235 32.7006228,7.75249235 C34.2309343,7.75249235 35.4229758,8.16402551 36.2776471,8.98439031 C37.1323183,9.8047551 37.5587543,10.9339949 37.5587543,12.3640051 C37.5587543,13.7805077 36.9029066,15.1762985 35.5912111,16.5522781 L34.2669204,17.8634209 C33.6758478,18.5198929 33.3798616,19.4618265 33.3798616,20.6919235 L31.1343253,20.6919235 L31.1343253,20.6901224 Z M31.0371626,24.5524107 C31.0371626,24.1832015 31.1487197,23.875227 31.3709343,23.6266862 C31.5940484,23.3772449 31.9233218,23.252074 32.3605536,23.252074 C32.7977855,23.252074 33.1297578,23.3772449 33.3564706,23.6266862 C33.5831834,23.8761276 33.6965398,24.184102 33.6965398,24.5524107 C33.6965398,24.9216199 33.5831834,25.2250918 33.3564706,25.4664286 C33.1297578,25.7077653 32.7977855,25.8293342 32.3605536,25.8293342 C31.9233218,25.8293342 31.5931488,25.7077653 31.3709343,25.4664286 C31.1487197,25.2250918 31.0371626,24.9207194 31.0371626,24.5524107 Z" id="Shape" fill="#7266D5"></path>
                </g>
                <g id="Group" transform="translate(14.394464, 45.926020)">
                    <path d="M34.1976471,0.355701531 L69.2463668,17.8337041 C60.5656055,21.9859566 48.7621453,24.5407041 35.7234602,24.5407041 C35.2511419,24.5407041 34.7428374,24.5407041 34.2345329,24.5118878 C21.0869896,24.3380893 9.28262976,21.5212934 0.711626298,17.0790765 L34.1976471,0.355701531 Z" id="Path" fill="#7CE3B0"></path>
                    <path d="M35.7234602,24.5407041 C35.2511419,24.5407041 34.7428374,24.5407041 34.2345329,24.5118878 C21.0869896,24.3371888 9.28262976,21.5212934 0.711626298,17.0790765 L0.711626298,29.2341633 C9.28352941,33.6763801 21.0869896,36.4922755 34.2345329,36.6669745 C34.7428374,36.6957908 35.2511419,36.6957908 35.7234602,36.6957908 C45.502699,36.6957908 54.5874048,35.2585765 62.1804844,32.788477 C64.7112111,31.9654107 67.077301,31.0270791 69.2472664,29.9887908 L69.2472664,17.8337041 C60.5665052,21.9859566 48.7621453,24.5407041 35.7234602,24.5407041 Z" id="Path" fill="#2CCD7F"></path>
                </g>
            </g>
            <g id="paperplane_4_" transform="translate(388.199307, 42.015267)" fill-rule="nonzero">
                <path d="M29.4876551,61.7752519 C28.2517695,61.7752519 26.9844021,61.748229 25.7206326,61.6941832 C25.4723761,61.683374 25.2798873,61.4734962 25.2897816,61.2248855 C25.2996759,60.9762748 25.5308423,60.7763053 25.7584107,60.7934198 C27.010487,60.8465649 28.2652617,60.8735878 29.4876551,60.8735878 L30.2315251,60.8699847 C30.2324246,60.8699847 30.2342236,60.8699847 30.2351231,60.8699847 C30.4815806,60.8699847 30.6830641,61.0690534 30.6848752,61.3167634 C30.686662,61.565374 30.4878769,61.7689466 30.238721,61.7707481 L29.4876551,61.7752519 Z M34.7271265,61.6077099 C34.4914627,61.6077099 34.2944766,61.424855 34.278286,61.1861527 C34.2620953,60.937542 34.4500867,60.7231603 34.6983432,60.7078473 C36.1941785,60.6114656 37.6900139,60.469145 39.1453726,60.2862901 C39.3945286,60.2574656 39.6167002,60.4304122 39.648182,60.6772214 C39.6796638,60.9240305 39.5042652,61.1492214 39.2578076,61.1807481 C37.7844593,61.3663053 36.2697348,61.5104275 34.7559099,61.6077099 C34.7460156,61.6077099 34.7370208,61.6077099 34.7271265,61.6077099 Z M21.2529151,61.3960305 C21.2394229,61.3960305 21.2259307,61.3960305 21.2124385,61.394229 C19.7354922,61.260916 18.2261646,61.0915725 16.7249324,60.8898015 C16.4784749,60.8564733 16.3057747,60.6294809 16.3390555,60.3835725 C16.3723362,60.1376641 16.5981057,59.962916 16.8445633,59.997145 C18.3332028,60.1971145 19.8299376,60.3655573 21.2933917,60.4970687 C21.5407487,60.5195878 21.7233432,60.7384733 21.7008562,60.9861832 C21.6792686,61.2194809 21.483182,61.3960305 21.2529151,61.3960305 Z M43.6400745,60.4754504 C43.4286967,60.4754504 43.2407054,60.3259237 43.1993293,60.1106412 C43.1516568,59.8665344 43.3117643,59.6305344 43.5555234,59.5827939 C45.0324697,59.2954504 46.4950243,58.9567634 47.9027106,58.5757405 C48.1410728,58.5117863 48.3902288,58.6523053 48.4540919,58.8937099 C48.5188544,59.1342137 48.3767366,59.3810229 48.1365754,59.4458779 C46.708201,59.8323053 45.2240589,60.1763969 43.7264246,60.4673435 C43.6976412,60.4727481 43.6688579,60.4754504 43.6400745,60.4754504 Z M12.3399671,60.2043206 C12.3138821,60.2043206 12.2877972,60.2025191 12.2617123,60.1980153 C10.8054541,59.9421985 9.3150156,59.6521527 7.83177296,59.3341832 C7.58891334,59.2819389 7.43420277,59.0432366 7.48637262,58.8000305 C7.53854246,58.5568244 7.77780416,58.3991908 8.0197643,58.4541374 C9.49311265,58.7694046 10.9727574,59.0576489 12.4173224,59.3107634 C12.6619809,59.354 12.8256863,59.5872977 12.7825113,59.8323053 C12.7438336,60.0502901 12.5549428,60.2043206 12.3399671,60.2043206 Z M3.54575043,58.3253282 C3.50887175,58.3253282 3.47289255,58.3208244 3.43601386,58.3118168 C2.67235529,58.120855 1.90240035,57.9208855 1.12614905,57.7119084 C0.885987868,57.6470534 0.743870017,57.4002443 0.807733102,57.1606412 C0.872495667,56.9201374 1.11985269,56.7787176 1.3582149,56.841771 C2.1299688,57.0489466 2.89452686,57.2480153 3.65368804,57.4380763 C3.8947487,57.4984275 4.04136395,57.7425344 3.98019931,57.9839389 C3.9307279,58.189313 3.74723397,58.3253282 3.54575043,58.3253282 Z M52.3092634,58.1181527 C52.1239705,58.1181527 51.9512704,58.0037557 51.8856083,57.8190992 C51.8019567,57.5849008 51.9233865,57.3272824 52.1581508,57.2435115 C53.571234,56.7381832 54.9600312,56.1734046 56.2867643,55.5653893 C56.5116343,55.46 56.7787799,55.5617863 56.8831196,55.7878779 C56.9865598,56.0139695 56.887617,56.2805954 56.660948,56.385084 C55.3117279,57.0048092 53.8977452,57.5785954 52.4603761,58.0920305 C52.4100052,58.1100458 52.3587348,58.1181527 52.3092634,58.1181527 Z M60.4684471,54.3619695 C60.3128371,54.3619695 60.1617244,54.2818015 60.0789723,54.1367786 C59.9539445,53.9214962 60.0277019,53.6458626 60.2426776,53.5215573 C61.5424263,52.7685191 62.797201,51.9524275 63.971922,51.0958015 C64.1734055,50.9498779 64.4540433,50.9940153 64.6006586,51.1948855 C64.7472738,51.3957557 64.7022998,51.6776947 64.5017158,51.8245191 C63.3018094,52.6991603 62.0209497,53.5323664 60.6933172,54.3016183 C60.6222582,54.3430534 60.5449029,54.3619695 60.4684471,54.3619695 Z M67.7110607,49.0564733 C67.5905303,49.0564733 67.4691005,49.0078321 67.3809515,48.9123511 C67.2919029,48.8159695 67.2523258,48.6907634 67.2622201,48.5700611 C66.7567123,48.513313 66.2628977,48.4421527 65.7816759,48.3565802 C65.5370173,48.3133435 65.373312,48.0800458 65.4173865,47.8350382 C65.459662,47.5900305 65.6944263,47.4251908 65.9381854,47.470229 C66.5939064,47.5855267 67.2739133,47.6747023 67.9746083,47.736855 C68.867792,46.8712214 69.6989116,45.9713588 70.4553744,45.0534809 C70.6136828,44.8625191 70.8961196,44.8345954 71.0886083,44.9931298 C71.2801976,45.1516641 71.307182,45.4354046 71.1488735,45.6272672 C70.5354281,46.3712977 69.8743102,47.1036183 69.1718163,47.8170229 C69.5549948,47.8341374 69.9426707,47.843145 70.334844,47.8449466 C70.5831005,47.8458473 70.7836846,48.0485191 70.7827851,48.2971298 C70.7818856,48.5448397 70.5804021,48.7457099 70.3330451,48.7457099 C70.3321456,48.7457099 70.3321456,48.7457099 70.3312461,48.7457099 C69.6422444,48.7430076 68.9649359,48.7159847 68.3047175,48.6673435 C68.2093726,48.7583206 68.1131282,48.8474962 68.0168839,48.9366718 C67.9296343,49.0168397 67.8198977,49.0564733 67.7110607,49.0564733 Z M74.8187522,48.4691756 C74.5938821,48.4691756 74.4004939,48.3016336 74.3726101,48.0728397 C74.3429272,47.8260305 74.5183258,47.6017405 74.7656828,47.5711145 C76.1688718,47.4008702 77.6449185,47.1450534 79.1524471,46.8126718 C79.3962062,46.7577252 79.6354679,46.9117557 79.6885373,47.1549618 C79.7416066,47.3981679 79.588695,47.6386718 79.3467348,47.6918168 C77.8104229,48.0305038 76.3064922,48.2917252 74.8736205,48.4655725 C74.8556308,48.4682748 74.8367418,48.4691756 74.8187522,48.4691756 Z M61.5559185,47.1027176 C61.4965529,47.1027176 61.4353882,47.0910076 61.3778215,47.0657863 C59.8972773,46.4262443 58.579539,45.6047481 57.4587868,44.6247176 C57.271695,44.4607786 57.2528059,44.1761374 57.4165113,43.9887786 C57.5793172,43.8005191 57.8644523,43.7825038 58.0515442,43.9464427 C59.1012374,44.8652214 60.340721,45.6362748 61.7349151,46.2388855 C61.9624835,46.3370687 62.0677227,46.6027939 61.9696794,46.830687 C61.8950225,47.0009313 61.7295182,47.1027176 61.5559185,47.1027176 Z M83.5985771,46.5631603 C83.4042894,46.5631603 83.2252929,46.4361527 83.1677262,46.240687 C83.0975667,46.0019847 83.2333882,45.7515725 83.470851,45.6804122 C84.9217123,45.2498473 86.356383,44.8165802 87.7739636,44.3806107 C88.0114263,44.3058473 88.2632808,44.4409618 88.3361386,44.6787634 C88.4089965,44.9165649 88.2758735,45.1687786 88.0384107,45.2417405 C86.6181317,45.6786107 85.1798631,46.1136794 83.7272028,46.5442443 C83.6840277,46.5577557 83.6408527,46.5631603 83.5985771,46.5631603 Z M92.200305,43.9176183 C92.0096153,43.9176183 91.8324177,43.7951145 91.771253,43.6032519 C91.6965962,43.3663511 91.8270208,43.1132366 92.0635841,43.0375725 C93.5144454,42.5754809 94.9410208,42.1142901 96.3415113,41.654 C96.578974,41.5774351 96.8308284,41.7044427 96.9090832,41.9413435 C96.9864385,42.1773435 96.8578128,42.4322595 96.622149,42.5097252 C95.2189601,42.970916 93.7896863,43.4330076 92.3361265,43.896 C92.2911525,43.911313 92.245279,43.9176183 92.200305,43.9176183 Z M73.3849809,42.1097863 C73.3076256,42.1097863 73.2293709,42.0899695 73.158312,42.0476336 C72.9442357,41.9215267 72.8722773,41.6458931 72.9982045,41.4315115 C73.7753553,40.1037863 74.398695,38.7589466 74.848435,37.4357252 C74.9284887,37.200626 75.1848406,37.0727176 75.4187054,37.154687 C75.6543692,37.234855 75.7793969,37.4906718 75.6993432,37.725771 C75.2298146,39.1066412 74.5812894,40.5064275 73.7735563,41.8872977 C73.6899047,42.0305191 73.538792,42.1097863 73.3849809,42.1097863 Z M54.9807192,41.2270382 C54.8179133,41.2270382 54.6623033,41.1387634 54.5813501,40.9847328 C53.8563692,39.5939542 53.4165234,38.0932824 53.2708076,36.5250534 C53.2483206,36.2773435 53.4300156,36.058458 53.6773726,36.0350382 C53.9274281,36.0125191 54.1433033,36.1944733 54.1666898,36.4421832 C54.3007123,37.8924122 54.7090763,39.2813893 55.3791889,40.5685802 C55.4934229,40.7892672 55.4088718,41.0612977 55.1884991,41.1756947 C55.1210381,41.2108244 55.0499792,41.2270382 54.9807192,41.2270382 Z M100.751662,41.1081374 C100.56457,41.1081374 100.389172,40.9901374 100.325308,40.8018779 C100.246154,40.5658779 100.372081,40.3109618 100.606846,40.2307939 C102.061305,39.7389771 103.480685,39.2507634 104.859588,38.7706565 C105.092553,38.688687 105.350704,38.8129924 105.431657,39.0480916 C105.51351,39.2831908 105.389381,39.5390076 105.154617,39.6209771 C103.773915,40.1019847 102.351837,40.5910992 100.894679,41.0838168 C100.847906,41.1009313 100.799334,41.1081374 100.751662,41.1081374 Z M109.251749,38.1491298 C109.066456,38.1491298 108.893756,38.0347328 108.828094,37.8500763 C108.744442,37.6158779 108.865872,37.3582595 109.100636,37.2744885 C110.570386,36.7493435 111.981671,36.2368092 113.328192,35.7413893 C113.562957,35.654916 113.819308,35.7756183 113.905659,36.008916 C113.991109,36.2422137 113.871478,36.5016336 113.638513,36.5872061 C112.289293,37.082626 110.87531,37.5960611 109.403761,38.1230076 C109.35339,38.1410229 109.30212,38.1491298 109.251749,38.1491298 Z M117.700565,35.0450992 C117.51887,35.0450992 117.347069,34.9334046 117.279608,34.7532519 C117.191459,34.520855 117.309291,34.2605344 117.542256,34.1731603 C119.061478,33.599374 120.466466,33.0616183 121.742828,32.5670992 C121.974894,32.4770229 122.234844,32.5923206 122.324792,32.8247176 C122.41474,33.0571145 122.299607,33.3174351 122.067541,33.4075115 C120.78848,33.9029313 119.380794,34.4415878 117.858873,35.0162748 C117.806704,35.0360916 117.753634,35.0450992 117.700565,35.0450992 Z M76.1481837,33.6309008 C76.1409879,33.6309008 76.1346915,33.6309008 76.1274957,33.6309008 C75.8792392,33.6191908 75.6876499,33.409313 75.6984437,33.1607023 C75.706539,32.9724427 75.7110364,32.7868855 75.7110364,32.602229 C75.7110364,31.2591908 75.4843674,30.0278473 75.0364263,28.9415267 C74.9419809,28.7118321 75.050818,28.4479084 75.2801854,28.3533282 C75.5086534,28.2596489 75.7731005,28.3677405 75.8675459,28.5974351 C76.3613605,29.7936489 76.6114159,31.1411908 76.6114159,32.602229 C76.6114159,32.7994962 76.6069185,32.9994656 76.5979237,33.2012366 C76.5862305,33.4417405 76.3865459,33.6309008 76.1481837,33.6309008 Z M54.1612929,32.4797252 C54.1190173,32.4797252 54.0749428,32.4734198 54.0317678,32.4608092 C53.794305,32.3896489 53.6584835,32.1383359 53.7304419,31.8996336 C54.1837799,30.3809466 54.9141577,28.9982748 55.8990884,27.7885496 C56.0555979,27.5957863 56.3389341,27.5660611 56.5323224,27.7245954 C56.7248111,27.8813282 56.7535945,28.1650687 56.5970849,28.3578321 C55.6868111,29.4756794 55.012201,30.7538626 54.5921438,32.1581527 C54.5336776,32.3536183 54.3555806,32.4797252 54.1612929,32.4797252 Z M126.096312,31.7897405 C125.918215,31.7897405 125.749113,31.6825496 125.678953,31.506 C125.586307,31.2754046 125.698742,31.0132824 125.929908,30.9214046 C128.603163,29.8530992 130.092702,29.2234656 130.0954,29.2225649 C130.323868,29.1252824 130.587416,29.2324733 130.68456,29.4621679 C130.780804,29.6909618 130.673766,29.9557863 130.445298,30.0521679 C130.445298,30.0521679 128.948563,30.6845038 126.262716,31.7582137 C126.207847,31.7798321 126.15208,31.7897405 126.096312,31.7897405 Z M72.6608995,25.7744427 C72.5745494,25.7744427 72.4872998,25.7492214 72.4099445,25.6978779 C71.3080815,24.9538473 69.9615598,24.4764427 68.4081577,24.2782748 C68.1617002,24.2467481 67.9881005,24.0206565 68.0186828,23.7738473 C68.0501646,23.5279389 68.2786326,23.3612977 68.5223917,23.3838168 C70.2170121,23.6 71.6939584,24.1278473 72.9127539,24.9502443 C73.1187348,25.0889618 73.1727036,25.3690992 73.0341837,25.575374 C72.9478336,25.705084 72.8057158,25.7744427 72.6608995,25.7744427 Z M59.7083865,25.6969771 C59.5464801,25.6969771 59.3899705,25.6096031 59.3099168,25.4555725 C59.1947834,25.2348855 59.2793345,24.962855 59.4988076,24.8475573 C60.5583951,24.2908855 61.717825,23.889145 62.9456153,23.6522443 C63.2757244,23.5891908 63.6004367,23.5333435 63.9179532,23.4865038 C64.1617123,23.451374 64.3919792,23.6198168 64.4288579,23.8657252 C64.4657366,24.1116336 64.2957348,24.3404275 64.0501768,24.3773588 C63.7443536,24.4223969 63.4331334,24.475542 63.115617,24.5367939 C61.9741768,24.7565802 60.8983986,25.1294962 59.9170659,25.6447328 C59.8505043,25.6807634 59.7785459,25.6969771 59.7083865,25.6969771 Z" id="Shape" fill="#DAE7FF"></path>
                <g id="Group" transform="translate(114.233969, 0.000000)">
                    <polygon id="Path" fill="#FFE994" points="0.538788562 11.9017863 13.8223102 18.5530229 53.6728752 0.816091603"></polygon>
                    <polygon id="Path" fill="#FFE270" points="16.0359307 29.6378168 13.8223102 18.5530229 53.6728752 0.816091603"></polygon>
                    <polygon id="Path" fill="#FFD94A" points="16.0359307 29.6378168 20.4640711 20.7698015 31.5339723 18.5530229"></polygon>
                    <polygon id="Path" fill="#FFE994" points="20.4640711 20.7698015 31.5339723 25.2033588 53.6728752 0.816091603"></polygon>
                </g>
            </g>
            <g id="woman_on_ladder" transform="translate(328.833622, 67.236641)" fill-rule="nonzero">
                <path d="M50.6002513,22.5884427 C50.6002513,22.5884427 48.5620295,17.6783817 48.0376326,16.7163664 C47.5132357,15.7543511 49.7367504,8.11677863 48.6546759,7.95914504 C47.5726014,7.80151145 46.6452374,12.6305038 46.6452374,12.6305038 C46.6452374,12.6305038 44.0988094,4.66505344 43.056312,4.33087023 C42.0138146,3.99668702 38.8620364,9.44900763 39.264104,12.1567023 C39.6661716,14.8643969 42.9186915,19.298855 43.933305,20.5608244 C44.9479185,21.8227939 46.6308458,26.4482137 46.6308458,26.4482137 L50.6002513,22.5884427 Z" id="Path" fill="#F1B282"></path>
                <path d="M49.1799723,18.5169924 C49.1799723,18.5169924 62.1468769,48.1998473 72.1347036,56.9057252 L59.8262184,59.0891756 C59.8262184,59.0891756 48.5647279,37.9752824 43.8397591,21.2336947 L49.1799723,18.5169924 Z" id="Path" fill="#1277D7"></path>
                <path d="M41.0117938,1.31601527 C27.2245633,-4.26151145 8.68807799,14.4176183 0.408363951,26.953542 C11.0240277,33.9849008 26.4770953,44.2211756 37.0900607,51.2507328 C50.3969688,31.1033588 54.1190173,6.61880916 41.0117938,1.31601527 Z" id="Path" fill="#355AA2"></path>
                <path d="M66.385227,178.844763 C66.385227,178.844763 61.0063362,179.748229 58.8808648,181.360595 C57.8545581,182.138855 58.6595927,184.478137 66.227818,184.123237 C73.7969428,183.768336 74.3690121,182.684718 73.4929185,179.652748 C72.6177244,176.620779 67.447513,178.941145 66.385227,178.844763 Z" id="Path" fill="#102B5E"></path>
                <g id="Group" transform="translate(14.391681, 187.358779)" fill="#C3D3F3">
                    <path d="M1.61726516,121.924626 L1.61726516,121.924626 C2.78389081,122.337176 4.06295147,121.724656 4.47491334,120.557267 L45.9337487,3.0508855 C46.3457106,1.88259542 45.7340641,0.601709924 44.568338,0.189160305 L44.568338,0.189160305 C43.4017123,-0.223389313 42.1226516,0.389129771 41.7106898,1.55651908 L0.251854419,119.062901 C-0.160107452,120.231191 0.451538995,121.512076 1.61726516,121.924626 Z" id="Path"></path>
                    <path d="M32.3210173,121.924626 L32.3210173,121.924626 C33.487643,122.337176 34.7667036,121.724656 35.1786655,120.557267 L76.6366014,3.0508855 C77.0485633,1.88259542 76.4369168,0.601709924 75.2711906,0.189160305 L75.2711906,0.189160305 C74.104565,-0.223389313 72.8255043,0.389129771 72.4135425,1.55651908 L30.9556066,119.062901 C30.5436447,120.231191 31.1543917,121.512076 32.3210173,121.924626 Z" id="Path"></path>
                    <polygon id="Rectangle" transform="translate(55.004286, 13.736641) rotate(-180.000000) translate(-55.004286, -13.736641) " points="38.7012094 11.7099236 71.3073619 11.7099236 71.3073619 15.7633588 38.7012094 15.7633588"></polygon>
                    <polygon id="Rectangle" transform="translate(46.459225, 38.282443) rotate(-180.000000) translate(-46.459225, -38.282443) " points="30.1561487 36.2557252 62.7623012 36.2557252 62.7623012 40.3091603 30.1561487 40.3091603"></polygon>
                    <polygon id="Rectangle" transform="translate(37.914164, 62.828244) rotate(-180.000000) translate(-37.914164, -62.828244) " points="21.6110881 60.8015267 54.2172406 60.8015267 54.2172406 64.8549618 21.6110881 64.8549618"></polygon>
                    <polygon id="Rectangle" transform="translate(29.369104, 87.374046) rotate(-180.000000) translate(-29.369104, -87.374046) " points="13.0660274 85.3473282 45.6721799 85.3473282 45.6721799 89.4007633 13.0660274 89.4007633"></polygon>
                    <polygon id="Rectangle" transform="translate(20.824043, 111.919847) rotate(-180.000000) translate(-20.824043, -111.919847) " points="4.52096674 109.89313 37.1271193 109.89313 37.1271193 113.946565 4.52096674 113.946565"></polygon>
                </g>
                <g id="Group" transform="translate(73.757366, 187.358779)" fill="#DAE7FF">
                    <path d="M75.7524125,121.924626 L75.7524125,121.924626 C74.5857868,122.337176 73.3067262,121.724656 72.8947643,120.557267 L31.4368284,3.0508855 C31.0248666,1.88259542 31.636513,0.601709924 32.8022392,0.189160305 L32.8022392,0.189160305 C33.9688648,-0.223389313 35.2479255,0.389129771 35.6598873,1.55651908 L77.1187227,119.062901 C77.5297851,120.231191 76.9190381,121.512076 75.7524125,121.924626 Z" id="Path"></path>
                    <path d="M45.0486603,121.924626 L45.0486603,121.924626 C43.8820347,122.337176 42.602974,121.724656 42.1910121,120.557267 L0.732176776,3.0508855 C0.320214905,1.88259542 0.931861352,0.601709924 2.09758752,0.189160305 L2.09758752,0.189160305 C3.26421317,-0.223389313 4.54327383,0.389129771 4.9552357,1.55651908 L46.4140711,119.062901 C46.8269324,120.231191 46.215286,121.512076 45.0486603,121.924626 Z" id="Path"></path>
                    <rect id="Rectangle" x="6.06249567" y="11.7099237" width="32.6061525" height="4.05343511"></rect>
                    <rect id="Rectangle" x="14.6075563" y="36.2557252" width="32.6061525" height="4.05343511"></rect>
                    <rect id="Rectangle" x="23.152617" y="60.8015267" width="32.6061525" height="4.05343511"></rect>
                    <rect id="Rectangle" x="31.6976776" y="85.3473282" width="32.6061525" height="4.05343511"></rect>
                    <rect id="Rectangle" x="40.2427383" y="109.89313" width="32.6061525" height="4.05343511"></rect>
                </g>
                <path d="M111.916009,190.798794 L55.0706672,190.798794 C53.0090589,190.798794 51.3369255,189.125176 51.3369255,187.059725 L51.3369255,187.059725 C51.3369255,184.995176 53.0081594,183.320656 55.0706672,183.320656 L111.916009,183.320656 C113.977617,183.320656 115.64975,184.994275 115.64975,187.059725 L115.64975,187.059725 C115.64975,189.125176 113.978516,190.798794 111.916009,190.798794 Z" id="Path" fill="#AEC1E8"></path>
                <g id="Group" transform="translate(63.863085, 20.717557)">
                    <path d="M7.20033795,5.15687023 C3.26511265,5.24244275 3.80390121,11.1541527 2.97098267,12.017084 C1.48504159,13.5564885 0.51540208,15.2463206 0.377781629,16.2731908 C0.168202773,17.8414198 2.15965165,16.2731908 1.32493414,20.8850992 C0.490216638,25.4970076 6.46096534,24.8160305 6.68133795,26.702229 C6.90171057,28.5884275 4.41644714,37.3816794 4.41644714,37.3816794 L15.5430156,37.1573893 C15.5430156,37.1573893 14.7082981,29.6576336 15.300156,21.122 C15.8920139,12.5863664 20.8130693,4.86141985 7.20033795,5.15687023 Z" id="Path" fill="#F1B282"></path>
                    <path d="M28.1564246,0.501725191 C28.1564246,0.501725191 25.7539133,6.23598473 25.5911075,8.66984733 C25.4283016,11.1037099 20.3723241,7.96905344 20.3723241,7.96905344 C20.3723241,7.96905344 21.4651924,0.421557252 28.1564246,0.501725191 Z" id="Path" fill="#03193F"></path>
                    <path d="M15.3892045,26.8634656 C14.3494055,27.7678321 14.215383,22.2038168 12.6952617,21.3444885 C11.1751404,20.4851603 8.99210225,19.7005954 9.19088735,18.8277557 C9.38967244,17.954916 11.5151438,17.3387939 11.8272634,16.2353588 C12.1384835,15.1310229 3.99728943,13.0556641 5.07396707,6.24229008 C6.15064471,-0.571083969 24.2014107,0.135114504 23.6365373,10.4551603 C23.0707643,20.7743053 18.8126256,23.885542 15.3892045,26.8634656 Z" id="Path" fill="#0B224E"></path>
                    <path d="M36.7662478,13.1187176 C35.7759203,21.9912366 21.7827088,24.7349618 22.5508648,12.0684275 C23.3181213,-0.59810687 37.9895407,2.15012214 36.7662478,13.1187176 Z" id="Path" fill="#0B224E"></path>
                </g>
                <path d="M35.1543795,34.7955878 C35.1543795,34.7955878 32.24726,30.4277863 31.5195806,29.6089924 C30.7919012,28.7901985 30.3385633,21.0562443 29.2483934,21.1472214 C28.1582236,21.2381985 28.3399185,26.1518626 28.3399185,26.1518626 C28.3399185,26.1518626 24.0691872,18.963771 22.9790173,18.8727939 C21.8888475,18.7818168 19.5259133,25.8789313 20.5261352,28.4262901 C21.526357,30.9736489 26.0768267,33.4219237 27.3486915,34.4235725 C28.6205563,35.4243206 31.8011179,39.2462595 31.8011179,39.2462595 L35.1543795,34.7955878 Z" id="Path" fill="#F1B282"></path>
                <polygon id="Path" fill="#F1B282" points="125.759906 154.344901 129.929896 158.348794 126.105307 163.282275 121.005255 158.719908"></polygon>
                <path d="M126.338272,154.536763 C123.479724,151.707466 108.518672,137.011511 99.1164073,129.97655 C94.3365702,117.727069 84.1274714,94.030687 84.1274714,94.030687 C63.4115459,86.2057557 69.0449896,106.769282 69.9534645,109.498595 C70.8619393,112.227908 87.3467106,137.732122 89.3183709,139.706595 C92.6248596,143.017802 117.818397,157.734473 121.867856,160.09087 C122.184473,160.274626 122.585641,160.202565 122.816808,159.918824 L126.391341,155.536611 C126.635101,155.24026 126.610815,154.806992 126.338272,154.536763 Z" id="Path" fill="#0B224E"></path>
                <rect id="Rectangle" fill="#F1B282" x="71.6040104" y="168.959786" width="6.69393068" height="7.3700458"></rect>
                <path d="M87.3988804,92.2102443 C80.6752669,86.5687634 69.7717695,91.6643817 67.4097348,97.2229924 C65.0477002,102.781603 66.8979307,128.787542 66.7162357,132.495985 C66.5345407,136.203527 71.2595095,173.042947 71.2595095,173.042947 L78.6424419,173.042947 C78.6424419,173.042947 80.9559047,151.293115 80.0735147,135.897267 C83.0813761,129.119924 88.273175,116.792977 89.0557227,110.773176 C90.1674801,102.218626 87.3988804,92.2102443 87.3988804,92.2102443 Z" id="Path" fill="#102B5E"></path>
                <path d="M83.5823865,77.1062443 C83.5823865,72.905084 84.1787418,55.4203664 79.9475875,51.6290534 C76.4944835,48.5358321 65.9552756,53.994458 59.9584419,52.5388244 C53.9616083,51.0831908 34.1370676,32.5211603 34.1370676,32.5211603 L29.2241075,37.0628092 C38.6641508,49.5320763 53.1763622,59.6179237 61.3364454,64.7099389 C59.6544177,66.7582748 57.8707487,69.4047176 58.013766,71.302626 C58.2809116,74.8327176 64.4171646,76.6639695 64.5475893,81.5019695 C64.6780139,86.3399695 61.2159151,97.9661221 64.5008163,100.987282 C67.7857175,104.008443 87.3709965,104.841649 91.3691854,101.565573 C95.3682738,98.2903969 83.5823865,86.3732977 83.5823865,77.1062443 Z" id="Path" fill="#1B90FB"></path>
                <path d="M80.7031508,84.9960305 C82.3797816,90.0799389 87.7622704,94.0261832 91.2639463,96.1447786 C89.0386326,90.9428702 83.5859844,83.4115878 83.5859844,77.103542 C83.5859844,75.7857252 83.6408527,73.1572977 83.5940797,70.0586718 C82.2772409,72.0898931 78.595669,78.5780916 80.7031508,84.9960305 Z" id="Path" fill="#1277D7"></path>
                <path d="M78.458948,175.518244 C79.1299601,175.458794 79.8054697,176.547817 79.6885373,179.18255 C79.5716049,181.817282 80.0024558,183.227878 77.9255563,183.426947 C76.6860728,183.545847 64.8741005,183.32426 61.0423154,183.226076 C60.790461,183.219771 60.5547972,183.086458 60.3973882,182.860366 C60.2399792,182.635176 60.1743172,182.337924 60.2192912,182.047878 C60.4189757,180.766992 61.3220537,178.831252 64.8983865,178.452031 C67.5248683,177.953008 70.0865875,175.321878 71.2478163,175.290351 C72.4090451,175.257924 72.9001612,176.454137 74.7944662,176.330733 C76.6887712,176.206427 77.2986187,175.620931 78.458948,175.518244 Z" id="Path" fill="#0B224E"></path>
                <path d="M128.03649,156.832809 C128.432262,156.286046 129.696031,156.490519 131.604728,158.307359 C133.513425,160.124198 134.859047,160.724107 133.646548,162.424748 C132.922466,163.439908 125.007042,172.22145 122.418338,175.05345 C122.248336,175.239908 121.992884,175.329985 121.719442,175.30116 C121.446,175.272336 121.179754,175.127313 120.990863,174.903023 C120.156146,173.912183 119.289946,171.959328 121.350655,169.007527 C122.698076,166.694366 122.395851,163.032763 123.133425,162.134702 C123.870998,161.23574 125.094291,161.649191 126.243827,160.136809 C127.394262,158.622626 127.352886,157.77771 128.03649,156.832809 Z" id="Path" fill="#0B224E"></path>
            </g>
            <g id="man_10_" transform="translate(152.630849, 180.022901)" fill-rule="nonzero">
                <path d="M40.7329549,37.8167481 C41.8519081,40.2235878 41.3032253,41.5341985 41.5775667,42.548458 C41.8519081,43.5627176 42.9025009,45.6110534 42.9474749,46.5820763 C42.9915494,47.5530992 41.9616447,47.6855115 41.7394731,48.9555878 C41.5173016,50.2247634 42.1010641,51.8785649 41.3284107,53.2089924 C40.5557574,54.5394198 37.5559913,54.2322595 37.7322894,55.5158473 C37.909487,56.7994351 39.7992946,61.5644733 39.7992946,61.5644733 L27.4647244,61.7626412 C27.4647244,61.7626412 27.95674,54.8267634 27.3298024,51.9596336 C26.7028648,49.0925038 25.3122686,38.5607786 27.8730884,37.2834962 C30.4339081,36.0062137 39.5456412,35.2612824 40.7329549,37.8167481 Z" id="Path" fill="#F1B282"></path>
                <path d="M33.961669,32.3554198 C23.7004003,32.6760916 20.0997816,35.2648855 20.216714,43.2951908 C20.2868735,48.0809466 22.924149,54.7060611 26.3862478,54.6835992 C28.8832045,54.6673282 33.8051594,54.3898931 34.6677608,53.0234351 C36.7149775,49.780687 34.9618908,45.3038931 36.3335979,43.759084 C38.2836707,41.5630229 42.7145095,42.6934809 42.1055615,35.1279695 C41.495714,27.562458 37.3769948,32.2491298 33.961669,32.3554198 Z" id="Path" fill="#0B224E"></path>
                <polygon id="Path" fill="#F1B282" points="45.108026 197.679725 45.108026 202.242992 51.989948 202.242992 51.991747 195.737679"></polygon>
                <polygon id="Path" fill="#F1B282" points="21.3797418 197.870687 21.3797418 203.263557 14.3808873 203.263557 14.3808873 196.643847"></polygon>
                <path d="M17.2889064,114.73113 C17.2889064,114.73113 15.1778267,143.433053 14.7892513,151.718275 C14.4015754,160.003496 14.3799879,196.643847 14.3799879,196.643847 L21.683766,196.708702 C21.683766,196.708702 26.8917556,173.078977 26.6111179,159.52429 C28.2913466,154.087282 37.163818,122.369603 37.2933432,115.896718 C37.4228683,109.423832 20.5207383,111.494687 17.2889064,114.73113 Z" id="Path" fill="#0B224E"></path>
                <path d="M49.8491854,114.73113 C49.8491854,114.73113 52.8759359,143.822183 53.2645113,152.106504 C53.6521872,160.391725 52.1761404,196.643847 52.1761404,196.643847 L44.6196083,197.157282 C44.6196083,197.157282 40.8220035,177.480107 40.4954922,159.330626 C38.8152634,153.893618 28.4442582,121.943542 28.3147331,115.470656 C28.185208,108.998672 46.6173536,111.494687 49.8491854,114.73113 Z" id="Path" fill="#102B5E"></path>
                <path d="M15.3892045,79.9076183 C15.3892045,79.9076183 9.65232062,87.0380611 10.8162478,92.6696336 C11.9792756,98.3012061 19.1706187,109.714779 20.9156101,112.238718 C22.6606014,114.762656 18.0372738,117.482061 18.0372738,117.482061 C18.0372738,117.482061 3.30828769,98.3228244 0.981332756,92.4975878 C-1.34562218,86.6723511 9.08744714,71.4611603 9.08744714,71.4611603 L15.3892045,79.9076183 Z" id="Path" fill="#F1B282"></path>
                <path d="M52.4477834,55.8617405 C52.4477834,55.8617405 58.9051508,55.0582595 62.4356101,44.0680458 C65.9660693,33.0778321 66.9932756,18.320626 65.7079185,15.0634656 C63.6714957,9.90479389 65.8626291,4.83259542 66.4346984,2.71490076 C66.8691473,1.10883969 68.1590017,-1.0989313 68.5187938,0.631435115 C68.734669,1.67001527 68.5691646,4.36329771 68.1634991,6.34767939 C67.8019081,8.11407634 73.3346101,8.28972519 72.5583588,11.008229 C71.7830069,13.7267328 71.0067556,13.5519847 70.87813,15.4832214 C70.7495043,17.414458 71.7830069,39.4219084 70.3609289,44.5994962 C68.938851,49.7779847 63.5095893,63.2407939 59.5024055,65.7007786 C55.4952218,68.1607634 52.4477834,55.8617405 52.4477834,55.8617405 Z" id="Path" fill="#F1B282"></path>
                <path d="M35.8460797,60.0043511 C32.8409168,59.9728244 20.1393588,59.0333282 13.8376014,64.8585649 C7.53584402,70.6838015 5.30603293,75.1497863 4.91835702,76.315374 C4.53068111,77.4809618 12.6745737,83.7917099 14.3224211,82.5288397 C15.9702686,81.2668702 17.1341958,78.9365954 19.0734749,78.9365954 C21.0127539,78.9365954 20.0431144,89.5196641 19.2677626,94.9566718 C18.4924107,100.393679 13.8385009,115.73458 17.1350953,117.190214 C20.4316898,118.645847 28.9632582,116.704702 33.9077002,117.966672 C38.8521421,119.228641 47.0931785,120.199664 49.8078094,117.092931 C52.5224402,113.986198 47.8685303,102.237542 47.7713865,94.6648244 C47.6742426,87.0921069 47.9656742,75.2461679 52.5224402,72.2367176 C57.0792062,69.2272672 62.6056118,68.2562443 62.799,65.440458 C62.9932877,62.6246718 54.8484957,53.6927023 52.9101161,54.6637252 C50.9708371,55.6347481 47.4520711,59.7125038 43.7974835,59.8097863 C40.142896,59.9070687 37.9796464,60.0268702 35.8460797,60.0043511 Z" id="Path" fill="#FFCB01"></path>
                <path d="M53.8689619,196.982534 C53.2825009,198.803878 51.0499913,198.519237 49.6351092,198.815588 C48.220227,199.111939 43.2901768,199.799221 43.1120797,198.451679 C42.9339827,197.104137 43.6283813,196.119603 43.5366343,195.088229 C43.4448873,194.056855 42.3133414,192.744443 43.4574801,191.969786 C44.6016187,191.19513 46.5049185,191.919344 47.8883189,191.957176 C48.8993345,191.985099 52.6303778,190.39345 53.0837158,191.032992 C53.5370537,191.672534 52.9182114,192.897573 53.074721,193.691145 C53.3085858,194.868443 54.3240988,195.569237 53.8689619,196.982534 Z" id="Path" fill="#355AA2"></path>
                <path d="M13.0820381,197.951756 C13.7629445,199.739771 15.9774645,199.338031 17.4058388,199.560519 C18.8342132,199.783008 23.7939463,200.209969 23.9009844,198.855221 C24.0080225,197.500473 23.2641525,196.55287 23.3019307,195.517893 C23.3397088,194.482916 24.4010953,193.112855 23.2173795,192.400351 C22.0336638,191.687847 20.1708406,192.509344 18.7919376,192.620137 C17.7836205,192.701206 13.9743224,191.306824 13.5551646,191.969786 C13.1360069,192.631847 13.8178128,193.823557 13.7026794,194.624336 C13.5317782,195.810641 12.5540433,196.563679 13.0820381,197.951756 Z" id="Path" fill="#355AA2"></path>
                <path d="M44.1500797,201.364748 C45.108026,200.393725 46.7720641,201.947542 48.4666846,201.947542 C50.161305,201.947542 51.1048596,200.782855 51.989948,200.718 C52.8759359,200.653145 53.3283744,202.724 55.2028908,203.674305 C56.3155477,204.238183 58.9519237,204.51742 58.9519237,207.749359 C58.9519237,208.549237 44.6187088,208.346565 44.1500797,208.085344 C43.2577955,207.58542 43.1921334,202.335771 44.1500797,201.364748 Z" id="Path" fill="#102B5E"></path>
                <path d="M13.5128891,201.364748 C14.4708354,200.393725 16.1348735,201.947542 17.8294939,201.947542 C19.5241144,201.947542 20.467669,200.782855 21.3527574,200.718 C22.2387452,200.653145 22.6911837,202.724 24.5657002,203.674305 C25.678357,204.238183 28.3147331,204.51742 28.3147331,207.749359 C28.3147331,208.549237 13.9815182,208.346565 13.5128891,208.085344 C12.6197054,207.58542 12.5549428,202.335771 13.5128891,201.364748 Z" id="Path" fill="#102B5E"></path>
            </g>
            <g id="man_5_" transform="translate(528.084469, 298.116034) scale(-1, 1) translate(-528.084469, -298.116034) translate(460.000000, 222.000000)" fill-rule="nonzero">
                <path d="M72.6116811,43.7879015 C72.6116811,43.7879015 74.5107466,49.1734758 76.6602581,53.270433 C78.8088687,57.3673902 88.6753608,63.0173423 92.2798015,64.2358184 C95.1076794,65.1917151 98.4121254,63.5667806 102.335479,63.7187529 C103.61924,63.7682113 103.899416,65.0604254 102.406649,65.8400703 C101.306669,66.4146874 99.4283236,67.1475715 99.8139024,67.900239 C100.199481,68.6529065 100.353532,68.9199821 103.651672,71.3146698 C106.948911,73.7093574 102.606646,77.2011232 100.100384,77.307234 C97.6977236,77.4088486 94.7689466,73.4953373 92.6419572,71.4675413 C89.8654298,68.820166 78.665628,67.1322844 71.6801661,60.811496 C64.8721785,54.650773 61.884844,47.5422466 61.884844,47.5422466 C61.884844,47.5422466 66.4865643,43.1791131 72.6116811,43.7879015 Z" id="Path" fill="#F1B282"></path>
                <path d="M68.1432918,33.4573826 C68.1432918,33.4573826 72.5765466,44.3670149 75.0053325,47.3614985 C76.5080086,49.2139418 68.947782,58.5067327 67.9423944,58.4240023 C66.9370068,58.3412718 63.1181555,48.4792592 63.1181555,48.4792592 C63.1181555,48.4792592 64.7100192,35.8817453 68.1432918,33.4573826 Z" id="Path" fill="#1EAF69"></path>
                <g id="Group" transform="translate(72.168938, 33.000000)">
                    <path d="M64,31.5 C64,38.2986354 61.8131004,44.5986354 58.08,49.7438646 C56.0265502,52.6311354 53.4665502,55.1511354 50.5334498,57.1725 C45.3065502,60.8472707 38.9072489,63 32,63 C14.3203493,63 0,48.9040939 0,31.5 C0,24.7013646 2.18689956,18.4013646 5.92,13.2561354 C7.97344978,10.3688646 10.5334498,7.84886463 13.4665502,5.8275 C18.6934498,2.15272926 25.0927511,0 32,0 C49.6803493,0.000687772926 64,14.0965939 64,31.5 Z" id="Path" fill="#FFE18D"></path>
                    <path d="M58,49.6211807 C55.9528217,52.4890895 53.4006403,54.9921905 50.4764979,57 L6,13.3788193 C8.04717828,10.5109105 10.5993597,8.00780947 13.5235021,6 L58,49.6211807 Z" id="Path" fill="#FFD972"></path>
                    <path d="M6,49.6211807 C8.04717828,52.4890895 10.5993597,54.9921905 13.5235021,57 L58,13.3788193 C55.9528217,10.5109105 53.4006403,8.00780947 50.4764979,6 L6,49.6211807 Z" id="Path" fill="#FFD972"></path>
                    <path d="M58,31.4996528 C58,37.2188175 56.1891973,42.5193036 53.0973629,46.847733 C51.3969581,49.2771802 49.2771802,51.3969581 46.847733,53.0973629 C42.5193036,56.1891973 37.2195119,58 31.4996528,58 C16.8583968,58 5,46.1416032 5,31.5003472 C5,25.7804881 6.81080267,20.4806964 9.90263713,16.152267 C11.6030419,13.7228198 13.7228198,11.6030419 16.152267,9.90263713 C20.4806964,6.81080267 25.7804881,5 31.5003472,5 C46.1416032,5 58,16.8583968 58,31.4996528 Z" id="Path" fill="#FFD255"></path>
                    <path d="M52,14.0431459 C47.3134023,10.0325162 41.1806184,7.6213311 34.4584136,7.6213311 C19.6751765,7.6213311 7.67765486,19.3634111 7.67765486,33.8318951 C7.67765486,40.4109761 10.1412938,46.4131856 14.2391723,51 C8.58845046,46.2037264 5,39.1006539 5,31.210564 C5,16.74208 16.9975217,5 31.7807587,5 C39.841791,5.00068675 47.0993864,8.51273476 52,14.0431459 Z" id="Path" fill="#FFC31B"></path>
                    <path d="M11,47.9568541 C15.6865977,51.9674838 21.8193816,54.3786689 28.5415864,54.3786689 C43.3248235,54.3786689 55.3223451,42.6365889 55.3223451,28.1681049 C55.3223451,21.5890239 52.8587062,15.5868144 48.7608277,11 C54.4115495,15.7969604 58,22.8993461 58,30.789436 C58,45.25792 46.0024783,57 31.2192413,57 C23.1589107,57 15.9013153,53.487952 11,47.9568541 Z" id="Path" fill="#FFC31B"></path>
                    <path d="M35.6079826,35.8828702 C35.6079826,35.0490196 35.3776107,34.3863027 34.9161872,33.8933559 C34.4554433,33.4004091 33.6725864,32.9456435 32.5682961,32.5290591 C31.4640058,32.1124747 30.5119377,31.6979358 29.7114121,31.286124 C28.9108866,30.8743123 28.2245277,30.4018197 27.6523354,29.8679645 C27.0801432,29.3341092 26.6343497,28.7068463 26.3149549,27.9848122 C25.9955602,27.262778 25.8365424,26.4043824 25.8365424,25.4082616 C25.8365424,23.6901067 26.3835908,22.2828561 27.4776877,21.1844642 C28.5717845,20.0867541 30.0260499,19.4465369 31.8391247,19.2631307 L31.8391247,16 L34.2706021,16 L34.2706021,19.3088118 C36.0639696,19.563126 37.4672677,20.3124324 38.4804965,21.5580947 C39.4937254,22.8030752 40,24.4169135 40,26.3989279 L35.6079826,26.3989279 C35.6079826,25.1791743 35.3572238,24.2669159 34.8557061,23.6621526 C34.3541884,23.0573894 33.6827799,22.7546669 32.8421601,22.7546669 C32.0110542,22.7546669 31.3681874,22.9912541 30.9122004,23.4637466 C30.4562135,23.9362392 30.2285598,24.5894108 30.2285598,25.4232614 C30.2285598,26.1957493 30.4514565,26.8155123 30.89725,27.2832322 C31.3430435,27.7509522 32.1714312,28.2288992 33.3817333,28.7163916 C34.5927151,29.2045658 35.5875957,29.664104 36.3677343,30.09637 C37.147873,30.5286359 37.8063698,31.0161283 38.3432248,31.5602107 C38.8800797,32.104293 39.2905359,32.724056 39.5739138,33.4201815 C39.8572917,34.116307 39.9993204,34.9269761 39.9993204,35.8521888 C39.9993204,37.579889 39.4624655,38.9830489 38.3887555,40.0603047 C37.3150455,41.1375605 35.8356363,41.7730051 33.9512074,41.9659566 L33.9512074,45 L31.5346804,45 L31.5346804,41.9809564 C29.457935,41.7573236 27.8494088,41.0175624 26.7097812,39.7623548 C25.5701536,38.5071472 25,36.8374007 25,34.753797 L29.3920174,34.753797 C29.3920174,35.9633235 29.6781135,36.8912635 30.2509854,37.5362534 C30.8238572,38.1812432 31.6468083,38.50442 32.7205183,38.50442 C33.6121053,38.50442 34.3161328,38.2678328 34.8326009,37.7953402 C35.349069,37.3228476 35.6079826,36.6860394 35.6079826,35.8828702 Z" id="Path" fill="#FFF0C6" transform="translate(32.500000, 30.500000) scale(-1, 1) translate(-32.500000, -30.500000) "></path>
                </g>
                <g id="Group" transform="translate(57.882212, 6.294808)">
                    <path d="M23.5148991,6.39722418 C23.5680513,9.00143577 22.2590655,9.65878338 22.0545646,10.6272695 C21.8500637,11.5957557 22.0086195,13.8762393 21.5599788,14.6594811 C21.1113381,15.4427229 19.8519009,14.8699043 18.9411062,15.7097985 C18.0303115,16.5496927 17.8537381,18.2177909 16.2753876,18.7438489 C14.6970372,19.2699068 11.3889876,17.062262 10.9322389,18.1755264 C10.4754903,19.2887909 10.2061257,24.2310378 10.2061257,24.2310378 L0.331525664,18.8337733 C0.331525664,18.8337733 4.47199292,13.7692292 5.22423186,11.1308463 C5.9764708,8.49246348 9.79261947,-0.601594458 13.4096726,0.0872267003 C17.0267257,0.776047859 23.4581434,3.6329471 23.5148991,6.39722418 Z" id="Path" fill="#F1B282"></path>
                    <path d="M10.9295363,18.1764257 C10.8385469,18.3967406 10.7547646,18.7645315 10.6826938,19.2096574 C9.8385646,17.5343652 10.7862956,15.671131 10.7862956,15.671131 C12.5502283,18.2258841 15.4411681,18.8130907 15.4411681,18.8130907 C15.4411681,18.8130907 15.4411681,18.8130907 15.4312584,18.8166877 C13.7393965,18.6683123 11.323223,17.2376146 10.9295363,18.1764257 Z" id="Path" fill="#CD916A"></path>
                </g>
                <path d="M82.573667,1.17541032 C82.573667,1.17541032 86.8771944,6.85503752 85.2925378,10.1076043 C84.0159838,12.7262038 82.0718741,14.6694708 76.6323307,12.0274909 C74.0134581,10.7550602 72.3819555,17.6981257 71.719805,17.3761962 C70.561267,16.8132693 70.8144157,12.7900501 69.4757006,12.1398965 C67.562221,11.2100778 63.8676918,22.5342617 61.8866457,21.5729695 C59.2083148,20.271763 56.1128741,14.2504229 59.6001997,7.096035 C64.2839006,-2.5105922 73.2035626,0.019881351 76.0467555,1.21497707 C78.8899484,2.41007279 82.573667,1.17541032 82.573667,1.17541032 Z" id="Path" fill="#0B224E"></path>
                <polygon id="Path" fill="#F1B282" points="9.20739795 134.973975 4.09397494 140.20308 8.6956953 143.396297 14.3217218 137.980148"></polygon>
                <polygon id="Path" fill="#F1B282" points="64.688398 141.616692 64.5217342 145.342262 58.0695962 144.906128 58.4713909 140.25074"></polygon>
                <path d="M46.740067,82.8690602 C46.740067,82.8690602 44.3365059,107.244876 39.4942493,115.181607 C34.8186564,122.844967 13.7784882,141.08434 13.7784882,141.08434 L6.92365459,135.348959 C6.92365459,135.348959 20.5666564,115.102473 26.8233024,107.053337 C23.466605,91.2131484 25.651251,77.4007554 27.4935608,74.2246244 C29.3358705,71.046695 47.17069,72.3523977 46.740067,82.8690602 Z" id="Path" fill="#0B224E"></path>
                <path d="M52.5057307,71.7148335 C52.5057307,71.7148335 55.1300086,78.569773 61.1596316,83.2503398 C67.1892546,87.9318058 75.2287519,97.1265791 75.2287519,104.649657 C75.2287519,112.172735 65.3469449,141.932327 65.3469449,141.932327 L56.9209679,141.09603 C56.9209679,141.09603 58.2146387,114.740078 60.6569378,107.05064 C50.553513,101.054478 29.0016422,93.2805111 27.3259962,74.7228058 L52.5057307,71.7148335 Z" id="Path" fill="#102B5E"></path>
                <path d="M61.336205,56.8934884 C52.3282564,67.6484506 56.3588157,79.1237075 51.95529,77.826098 C45.1436988,75.8198839 36.0285449,73.6446118 30.6304422,74.8316143 C25.0107218,76.0680753 21.9107767,75.1139771 24.2557803,70.5449166 C26.6007838,65.9758562 36.9852847,52.0429645 39.6645165,42.4579191 C41.6176351,35.4707907 49.8733449,25.6420501 58.7560705,24.4451559 C59.8470422,24.5170955 65.5136086,25.505365 68.3189643,27.4971912 C71.0036015,33.7388461 70.3441537,46.1385262 61.336205,56.8934884 Z" id="Path" fill="#2CCD7F"></path>
                <path d="M57.4398776,63.0685992 C56.5813342,64.963307 56.003867,66.799564 55.6002705,68.4919418 C52.7786988,61.8654103 48.7886794,50.5070552 51.4003449,42.2376043 C51.4003449,42.2385035 51.775113,53.6831861 57.4398776,63.0685992 Z" id="Path" fill="#1EAF69"></path>
                <path d="M64.8127201,48.8065841 C64.8127201,48.8065841 65.5000953,54.9754002 66.7685413,59.8394128 C68.0369873,64.7043247 77.0953856,73.104166 80.6133413,75.2767403 C83.3727519,76.9817075 87.2708811,76.070773 91.3888263,77.19303 C92.7365502,77.5599217 92.7149289,78.9969141 90.9419873,79.456428 C89.636605,79.7954431 87.4663732,80.1110778 87.6897926,81.0031282 C87.9132121,81.8951786 88.0105077,82.2153096 90.9140599,85.5587 C93.8176121,88.9020904 88.360051,91.5359771 85.6799183,91.0341987 C83.1105944,90.553103 80.9709926,85.6917882 79.2178705,83.022831 C76.9287218,79.5400577 65.4838794,75.0087655 59.6407395,66.6035287 C53.9462457,58.4114128 52.5309555,50.1527529 52.5309555,50.1527529 C52.5309555,50.1527529 58.4758953,46.6609871 64.8127201,48.8065841 Z" id="Path" fill="#F1B282"></path>
                <path d="M5.17683866,138.222944 C4.64892007,137.808393 3.41200503,138.280496 1.89221211,140.382929 C0.37241919,142.485362 -0.85638789,143.340544 0.76880857,144.634556 C1.78951123,145.448373 7.46598733,149.011179 11.5451944,151.547947 C13.0190422,152.464277 15.6388157,151.893257 17.4577024,151.308748 C17.828867,151.189148 18.1243572,150.874413 18.2099413,150.507521 C18.2946245,150.140629 18.1522847,149.792622 17.8486864,149.621765 C14.4595572,147.716267 14.1856882,147.973451 12.7712988,144.633657 C12.2577944,143.420577 11.8767201,142.34598 11.383936,142.005166 C10.4271962,141.343322 9.27946875,141.997972 7.7614776,140.863126 C6.24348645,139.728279 6.090336,138.939642 5.17683866,138.222944 Z" id="Path" fill="#0B224E"></path>
                <path d="M57.5687041,143.409786 C56.873221,143.304574 56.0903519,144.334209 56.0200829,146.945614 C55.9498139,149.55702 55.3984723,150.921174 57.5488847,151.261987 C59.3984015,151.555141 71.7414263,152.088393 75.1620864,152.231373 C75.4251449,152.242163 75.6800953,152.12706 75.8611732,151.914839 C76.042251,151.702617 76.1314387,151.414859 76.1062139,151.124403 C75.9918015,149.844778 75.1909148,147.869138 71.4909803,147.246861 C68.7892263,146.571529 66.3108918,143.795561 65.102805,143.683156 C63.8947183,143.57075 63.2956298,144.718186 61.3298988,144.465498 C59.3641679,144.212811 58.7704847,143.591433 57.5687041,143.409786 Z" id="Path" fill="#0B224E"></path>
                <path d="M6.24438733,134.594493 C5.84079087,136.361509 7.91552892,137.437005 8.99118556,138.490919 C10.0668422,139.544833 13.9901962,142.950272 14.8190103,141.998871 C15.6478245,141.047471 15.5397183,139.873058 16.1352033,139.118592 C16.7306882,138.364126 18.3666953,137.994536 17.7640033,136.723005 C17.1613112,135.451473 15.1514369,134.911027 13.9352422,134.136778 C13.0460687,133.570254 10.6136794,130.154924 9.90107937,130.392325 C9.18847937,130.628826 9.11100326,131.948917 8.57858025,132.478572 C7.78670238,133.26541 6.5578953,133.223146 6.24438733,134.594493 Z" id="Path" fill="#355AA2"></path>
                <path d="M56.0561183,140.230058 C56.6344864,141.948514 58.9659767,141.78665 60.4344192,142.127463 C61.9028617,142.468277 67.0288971,143.33335 67.2397041,142.090594 C67.4496103,140.847839 66.7451183,139.900934 66.8595307,138.947735 C66.9739431,137.994536 68.1775254,136.828216 66.9991679,136.056665 C65.8208103,135.285113 63.8235484,135.868723 62.3812316,135.839947 C61.3262953,135.819264 57.467805,134.169151 56.9831289,134.74197 C56.4984528,135.314788 57.1218652,136.481108 56.94349,137.211294 C56.6786298,138.293085 55.6074776,138.896478 56.0561183,140.230058 Z" id="Path" fill="#355AA2"></path>
            </g>
        </g>
    </g>
</svg>
