<?xml version="1.0" standalone="no"?>
<!DOCTYPE svg PUBLIC "-//W3C//DTD SVG 1.1//EN" "http://www.w3.org/Graphics/SVG/1.1/DTD/svg11.dtd"><svg t="1648535515130"
  class="icon" viewBox="0 0 1024 1024" version="1.1" xmlns="http://www.w3.org/2000/svg" p-id="16058" width="20"
  height="20" xmlns:xlink="http://www.w3.org/1999/xlink">
  <path
    d="M762.112 793.6H261.888a133.546667 133.546667 0 0 1-116.352-199.296L395.648 153.045333a133.802667 133.802667 0 0 1 232.704 0l250.069333 441.258667a133.504 133.504 0 0 1-116.309333 199.296z m-302.933333-604.672L209.066667 630.186667a60.629333 60.629333 0 0 0 52.864 90.538666h500.181333A60.629333 60.629333 0 0 0 814.933333 630.186667L564.906667 188.928a60.842667 60.842667 0 0 0-105.770667 0z"
    p-id="16059" fill="currentColor"></path>
  <path
    d="M512 938.666667a132.266667 132.266667 0 0 1-116.352-67.712L145.536 429.738667A133.546667 133.546667 0 0 1 261.888 230.4h500.224a133.504 133.504 0 0 1 116.309333 199.296l-250.069333 441.258667A132.266667 132.266667 0 0 1 512 938.666667zM261.888 303.274667A60.672 60.672 0 0 0 209.066667 393.856l250.112 441.216a60.842667 60.842667 0 0 0 105.770666 0L814.933333 393.856a60.672 60.672 0 0 0-52.906666-90.581333z m334.72 549.717333z"
    p-id="16060" fill="currentColor"></path>
</svg>
