<?xml version="1.0" standalone="no"?>
<!DOCTYPE svg PUBLIC "-//W3C//DTD SVG 1.1//EN" "http://www.w3.org/Graphics/SVG/1.1/DTD/svg11.dtd"><svg t="1648538168448"
  class="icon" viewBox="0 0 1171 1024" version="1.1" xmlns="http://www.w3.org/2000/svg" p-id="37648" width="22.87109375"
  height="20" xmlns:xlink="http://www.w3.org/1999/xlink">
  <path
    d="M1130.048731 891.538286a42.203429 42.203429 0 0 1-41.545142-42.934857 53.686857 53.686857 0 0 0-0.365715-5.924572c-15.725714-161.353143-132.754286-256.585143-317.001143-271.506286a42.569143 42.569143 0 0 1-38.107428-46.226285 41.764571 41.764571 0 0 1 41.325714-39.058286c75.556571-22.528 130.267429-90.331429 137.508572-171.446857 7.241143-81.92-35.254857-159.890286-106.788572-195.876572a43.666286 43.666286 0 0 1-19.236571-57.490285 40.96 40.96 0 0 1 55.588571-19.821715c102.619429 51.638857 163.547429 163.547429 153.088 281.014858a286.500571 286.500571 0 0 1-93.184 187.830857c152.356571 47.616 253.44 158.573714 269.531429 324.022857 0.512 4.754286 0.731429 9.581714 0.731428 14.482286a42.203429 42.203429 0 0 1-41.545143 42.934857zM598.153874 532.699429c172.763429 40.448 289.792 155.501714 307.273143 335.140571a145.261714 145.261714 0 0 1-34.742857 109.421714 135.241143 135.241143 0 0 1-101.814857 46.738286H132.819017c-37.083429 0-72.484571-16.091429-97.499428-44.324571a139.922286 139.922286 0 0 1-34.523429-104.155429C14.547017 706.340571 116.288731 591.872 269.742446 542.866286a298.861714 298.861714 0 0 1-127.488-246.418286C142.254446 132.754286 270.62016 0 428.974446 0c102.4 0 197.046857 56.466286 248.246857 148.187429 51.2 91.721143 51.2 204.8 0 296.521142-19.968 35.766857-47.981714 64.219429-79.067429 87.990858z m-522.752 349.330285a60.854857 60.854857 0 0 0 14.994286 45.348572 56.978286 56.978286 0 0 0 42.422857 19.309714h636.050286c34.523429-0.073143 62.464-28.964571 62.464-64.658286a63.268571 63.268571 0 0 0-0.365714-6.436571c-17.700571-181.613714-161.060571-282.697143-377.490286-282.697143-218.331429 0-363.154286 104.301714-378.075429 289.133714zM428.974446 77.312a210.651429 210.651429 0 0 0-183.515429 109.568 225.426286 225.426286 0 0 0 0 219.136 210.651429 210.651429 0 0 0 183.515429 109.568c117.028571 0 211.821714-98.157714 211.821714-219.136 0-121.051429-94.793143-219.136-211.821714-219.136z"
    p-id="37649" fill="currentColor"></path>
</svg>
