<?xml version="1.0" standalone="no"?><!DOCTYPE svg PUBLIC "-//W3C//DTD SVG 1.1//EN" "http://www.w3.org/Graphics/SVG/1.1/DTD/svg11.dtd"><svg t="1642130092809" class="icon" viewBox="0 0 1024 1024" version="1.1" xmlns="http://www.w3.org/2000/svg" p-id="14721" width="16" height="16" xmlns:xlink="http://www.w3.org/1999/xlink"><defs><style type="text/css"></style></defs><path d="M512.512 575.744c-13.312 15.053-26.726 30.054-40.038 45.158l-48.384 55.296c-0.973 1.024-1.639 2.56-3.79 3.072l1.383-30.464c0.512-11.52 1.024-23.04 1.741-34.56 0.256-3.584-0.82-4.505-4.25-4.761-21.76-1.536-43.52-3.38-65.28-5.12 0-2.253 1.844-3.226 2.97-4.506l83.66-95.334c1.64-1.895 3.073-3.943 4.66-5.888 1.28-4.096 4.608-6.605 7.22-9.523 10.854-12.084 21.35-24.474 32.153-36.608 7.475-8.346 14.899-16.743 22.118-25.344 1.792-2.15 3.43-4.608 6.144-5.735 10.906-10.905 20.583-22.937 30.823-34.457 20.224-22.887 40.345-45.876 60.416-68.864a6.144 6.144 0 0 1 5.99-2.304c20.992 2.304 42.086 4.454 63.13 6.502 3.225 0.358 3.993 1.536 3.737 4.813-1.74 20.48-3.277 40.96-4.761 61.44a13.568 13.568 0 0 1-3.584 8.55 53834.038 53834.038 0 0 0-86.221 98.407c-0.87 1.024-1.639 2.099-2.458 3.174-3.328 7.168-9.472 12.032-14.438 17.818-10.906 12.85-22.119 25.497-33.28 38.144l-17.51 19.968a4.096 4.096 0 0 1-2.151 1.126M876.442 397.67l36.864 1.844c11.264 0.614 22.528 1.075 33.792 1.894 3.584 0.307 4.096-1.178 4.25-4.25 1.228-18.739 2.56-37.478 3.89-56.217 0.154-1.843-0.05-3.738 1.178-5.683 9.83 10.086 18.022 21.35 25.395 33.177 30.003 48.026 44.186 100.455 40.858 157.338-3.687 62.464-31.386 112.64-77.978 152.576a10.138 10.138 0 0 1-8.192 2.56 4888.422 4888.422 0 0 0-62.566-5.427c-3.738-0.308-4.864-1.536-4.403-5.632 2.099-20.378 3.993-40.756 5.734-61.133a12.34 12.34 0 0 1 5.12-9.626c18.227-14.54 28.928-34.304 34.611-56.73 13.62-54.015 2.611-101.887-36.3-142.13l-2.305-2.56" p-id="14722" fill="currentColor"></path><path d="M67.02 662.22l55.604 3.84c3.328 0.257 6.656 0.206 9.933 0.718 3.584 0.512 4.352-1.024 4.608-4.404 1.536-20.582 3.225-41.164 4.915-61.798 0-0.41 0.205-0.87 0.512-1.843 3.635 3.02 7.066 5.837 10.598 8.601 31.028 24.27 65.69 37.632 105.216 35.84a159.642 159.642 0 0 0 75.828-23.244 11.725 11.725 0 0 1 7.424-1.997c20.684 1.74 41.318 3.584 61.952 4.864 5.324 0.307 6.45 2.15 6.144 7.168-1.23 19.456-2.1 38.912-2.868 58.368-0.102 3.072-1.638 4.608-3.584 6.144a193.229 193.229 0 0 1-67.686 35.533c-99.38 28.364-188.006 8.192-264.909-62.925-1.28-1.178-2.816-2.304-3.686-4.915" p-id="14723" fill="currentColor"></path><path d="M81.46 319.13c-0.922 17.408-1.844 33.945-2.663 50.483-0.307 5.53-2.867 12.8 0.512 16.077 2.918 2.918 9.984 1.536 15.206 1.945l48.947 3.328c1.588 0.154 3.226 0.461 5.274 0.717-4.352 4.966-8.602 9.42-12.442 14.182-22.323 27.904-35.43 59.341-34.048 96.052 1.024 28.672 7.834 55.552 25.498 78.592 1.126 1.536 1.331 2.97 1.178 4.761-1.536 20.224-3.021 40.5-4.455 60.775-0.205 2.918-0.819 4.454-4.352 4.147-21.248-1.741-42.496-3.226-63.744-4.71a10.035 10.035 0 0 1-7.168-3.636 175.974 175.974 0 0 1-39.731-75.776C-5.632 506.88-3.584 448.717 22.579 392.704a201.011 201.011 0 0 1 55.143-70.86l3.737-2.714M861.082 613.171c-1.536 18.074-3.072 35.175-4.608 52.224-0.461 5.581-0.82 11.11-1.434 16.64-0.358 2.867 0.666 3.687 3.43 3.891 20.07 1.639 40.141 3.38 60.16 5.12 1.434 0.154 3.072-0.153 4.506 1.332a202.854 202.854 0 0 1-35.942 21.196c-58.47 26.573-119.143 34.612-181.71 19.661-45.311-10.803-83.455-35.379-115.967-69.171-2.202-2.304-3.43-4.557-3.072-7.987 1.792-20.275 3.379-40.602 4.966-60.928 0.205-2.407 0.87-3.072 3.328-2.919a9891.087 9891.087 0 0 0 68.096 5.888c2.56 0.256 4.557 1.332 6.503 3.124 26.521 24.627 58.214 37.068 93.593 40.09 34.407 2.969 65.536-7.118 94.362-25.6l3.789-2.56" p-id="14724" fill="currentColor"></path><path d="M432.486 333.056l-46.95-3.277c-5.632-0.41-11.264-0.665-16.845-1.382-3.174-0.41-3.84 0.768-4.096 3.737-1.638 21.453-3.533 42.804-5.376 64.205-0.102 0.922 0.205 2.048-1.024 3.021a151.86 151.86 0 0 0-32.256-24.832c-25.805-14.95-53.35-23.091-83.2-20.736-26.47 2.048-50.944 11.264-74.137 24.115a11.162 11.162 0 0 1-6.503 1.946 4467.968 4467.968 0 0 0-65.485-4.506c-3.89-0.205-4.505-1.587-4.25-5.12 1.332-19.097 2.56-38.195 3.585-57.241a8.602 8.602 0 0 1 4.096-7.373 264.192 264.192 0 0 1 95.13-41.933c40.089-9.165 80.383-11.11 120.524-0.41 43.93 11.674 81.818 34.304 114.432 66.356 0.922 0.921 2.253 1.536 2.355 3.43M684.544 382.31l3.072-43.52c0.512-7.321 0.87-14.643 1.587-21.913 0.41-3.584-0.819-4.506-4.198-4.813-20.736-1.946-41.472-4.096-62.208-6.195-0.82-0.103-1.69 0-2.253-1.178 2.97-2.918 6.656-4.864 10.138-6.963a294.4 294.4 0 0 1 120.883-39.834c40.653-4.3 80.64-1.69 119.45 12.39 26.675 9.678 50.687 24.014 70.655 44.954a11.776 11.776 0 0 1 3.636 9.933c-1.639 19.815-3.072 39.68-4.404 59.546-0.256 3.328-1.024 4.608-4.659 4.352-22.118-1.536-44.288-2.765-66.406-4.096a7.885 7.885 0 0 1-5.376-1.946c-18.74-17.05-41.216-25.651-65.587-28.672-30.72-3.84-60.775-1.024-89.447 11.93-8.755 3.942-16.793 9.216-24.934 16.025" p-id="14725" fill="currentColor"></path><path d="M512.87 421.376c-4.966 7.168-11.264 13.21-16.896 19.763-16.179 18.483-32.512 36.864-48.793 55.194-0.666 0.768-1.485 1.331-2.202 2.048a34105.328 34105.328 0 0 0-68.966-78.131 6.144 6.144 0 0 1-1.587-5.018c1.638-22.938 3.276-45.875 4.71-68.864 0.205-3.02 1.178-3.533 3.942-3.277a4353.28 4353.28 0 0 0 62.976 5.53 8.602 8.602 0 0 1 6.298 3.277 25530.577 25530.577 0 0 0 60.518 69.478m0 154.01c10.087-11.674 20.122-23.348 30.31-34.97l37.377-42.086 72.499 83.097-41.42-3.174c-8.756-0.717-17.562-1.229-26.266-2.253-3.277-0.41-3.943 0.768-4.25 3.584-1.382 14.182-2.867 28.365-4.352 42.496-0.768 7.22-1.536 14.49-2.355 23.04l-61.543-69.734" p-id="14726" fill="currentColor"></path></svg>
