<?xml version="1.0" standalone="no"?><!DOCTYPE svg PUBLIC "-//W3C//DTD SVG 1.1//EN" "http://www.w3.org/Graphics/SVG/1.1/DTD/svg11.dtd"><svg t="1648535067994" class="icon" viewBox="0 0 1024 1024" version="1.1" xmlns="http://www.w3.org/2000/svg" p-id="13654" width="20" height="20" xmlns:xlink="http://www.w3.org/1999/xlink"><defs><style type="text/css">
</style></defs><path d="M341.333333 85.333333v213.333334h384V85.333333H341.333333z m0-42.666666h384a42.666667 42.666667 0 0 1 42.666667 42.666666v213.333334a42.666667 42.666667 0 0 1-42.666667 42.666666H341.333333a42.666667 42.666667 0 0 1-42.666666-42.666666V85.333333a42.666667 42.666667 0 0 1 42.666666-42.666666zM42.666667 682.666667v213.333333h341.333333v-213.333333H42.666667z m0-42.666667h341.333333a42.666667 42.666667 0 0 1 42.666667 42.666667v213.333333a42.666667 42.666667 0 0 1-42.666667 42.666667H42.666667a42.666667 42.666667 0 0 1-42.666667-42.666667v-213.333333a42.666667 42.666667 0 0 1 42.666667-42.666667zM640 682.666667v213.333333h341.333333v-213.333333h-341.333333z m0-42.666667h341.333333a42.666667 42.666667 0 0 1 42.666667 42.666667v213.333333a42.666667 42.666667 0 0 1-42.666667 42.666667h-341.333333a42.666667 42.666667 0 0 1-42.666667-42.666667v-213.333333a42.666667 42.666667 0 0 1 42.666667-42.666667z" p-id="13655" fill="currentColor"></path><path d="M170.666667 469.333333m21.333333 0l640 0q21.333333 0 21.333333 21.333334l0 0q0 21.333333-21.333333 21.333333l-640 0q-21.333333 0-21.333333-21.333333l0 0q0-21.333333 21.333333-21.333334Z" p-id="13656" fill="currentColor"></path><path d="M170.666667 469.333333m21.333333 0l0 0q21.333333 0 21.333333 21.333334l0 170.666666q0 21.333333-21.333333 21.333334l0 0q-21.333333 0-21.333333-21.333334l0-170.666666q0-21.333333 21.333333-21.333334Z" p-id="13657" fill="currentColor"></path><path d="M810.666667 469.333333m21.333333 0l0 0q21.333333 0 21.333333 21.333334l0 170.666666q0 21.333333-21.333333 21.333334l0 0q-21.333333 0-21.333333-21.333334l0-170.666666q0-21.333333 21.333333-21.333334Z" p-id="13658" fill="currentColor"></path><path d="M512 298.666667m21.333333 0l0 0q21.333333 0 21.333334 21.333333l0 170.666667q0 21.333333-21.333334 21.333333l0 0q-21.333333 0-21.333333-21.333333l0-170.666667q0-21.333333 21.333333-21.333333Z" p-id="13659" fill="currentColor"></path></svg>
