<?xml version="1.0" standalone="no"?>
<!DOCTYPE svg PUBLIC "-//W3C//DTD SVG 1.1//EN" "http://www.w3.org/Graphics/SVG/1.1/DTD/svg11.dtd"><svg t="1642130350214"
  class="icon" viewBox="0 0 1024 1024" version="1.1" xmlns="http://www.w3.org/2000/svg" p-id="30075"
  xmlns:xlink="http://www.w3.org/1999/xlink" width="16" height="16">
  <defs>
    <style type="text/css"></style>
  </defs>
  <path d="M173.568 74.752l51.2 0 0 136.192-51.2 0 0-136.192Z" p-id="30076" fill="currentColor"></path>
  <path d="M289.28 74.752l51.2 0 0 136.192-51.2 0 0-136.192Z" p-id="30077" fill="currentColor"></path>
  <path d="M765.44 143.36m-63.488 0a6.2 6.2 0 1 0 126.976 0 6.2 6.2 0 1 0-126.976 0Z" p-id="30078" fill="currentColor"></path>
  <path
    d="M905.728 1.024 113.152 1.024C85.504 1.024 64 23.552 64 51.2l0 184.32c0 27.648 22.528 49.152 49.152 49.152l792.576 0c27.648 0 49.152-22.528 49.152-49.152L954.88 51.2C954.88 23.552 932.352 1.024 905.728 1.024zM912.896 235.52c0 4.096-3.072 7.168-7.168 7.168L113.152 242.688c-4.096 0-7.168-3.072-7.168-7.168L105.984 51.2c0-4.096 3.072-7.168 7.168-7.168l792.576 0c4.096 0 7.168 3.072 7.168 7.168L912.896 235.52z"
    p-id="30079" fill="currentColor"></path>
  <path d="M173.568 442.368l51.2 0 0 136.192-51.2 0 0-136.192Z" p-id="30080" fill="currentColor"></path>
  <path d="M289.28 442.368l51.2 0 0 136.192-51.2 0 0-136.192Z" p-id="30081" fill="currentColor"></path>
  <path d="M765.44 509.952m-63.488 0a6.2 6.2 0 1 0 126.976 0 6.2 6.2 0 1 0-126.976 0Z" p-id="30082" fill="currentColor">
  </path>
  <path
    d="M905.728 368.64 113.152 368.64c-27.648 0-49.152 22.528-49.152 49.152l0 184.32c0 27.648 22.528 49.152 49.152 49.152l792.576 0c27.648 0 49.152-22.528 49.152-49.152l0-184.32C954.88 391.168 932.352 368.64 905.728 368.64zM912.896 602.112c0 4.096-3.072 7.168-7.168 7.168L113.152 609.28c-4.096 0-7.168-3.072-7.168-7.168l0-184.32c0-4.096 3.072-7.168 7.168-7.168l792.576 0c4.096 0 7.168 3.072 7.168 7.168L912.896 602.112z"
    p-id="30083" fill="currentColor"></path>
  <path d="M173.568 808.96l51.2 0 0 136.192-51.2 0 0-136.192Z" p-id="30084" fill="currentColor"></path>
  <path d="M289.28 808.96l51.2 0 0 136.192-51.2 0 0-136.192Z" p-id="30085" fill="currentColor"></path>
  <path d="M765.44 877.568m-63.488 0a6.2 6.2 0 1 0 126.976 0 6.2 6.2 0 1 0-126.976 0Z" p-id="30086" fill="currentColor"></path>
  <path
    d="M905.728 735.232 113.152 735.232c-27.648 0-49.152 22.528-49.152 49.152l0 184.32c0 27.648 22.528 49.152 49.152 49.152l792.576 0c27.648 0 49.152-22.528 49.152-49.152l0-184.32C954.88 757.76 932.352 735.232 905.728 735.232zM912.896 968.704c0 4.096-3.072 7.168-7.168 7.168L113.152 975.872c-4.096 0-7.168-3.072-7.168-7.168l0-184.32C105.984 781.312 109.056 778.24 113.152 778.24l792.576 0c4.096 0 7.168 3.072 7.168 7.168L912.896 968.704z"
    p-id="30087" fill="currentColor"></path>
</svg>
