<?xml version="1.0" standalone="no"?>
<!DOCTYPE svg PUBLIC "-//W3C//DTD SVG 1.1//EN" "http://www.w3.org/Graphics/SVG/1.1/DTD/svg11.dtd"><svg t="1648537703345"
  class="icon" viewBox="0 0 1024 1024" version="1.1" xmlns="http://www.w3.org/2000/svg" p-id="29782" width="20"
  height="20" xmlns:xlink="http://www.w3.org/1999/xlink">
  <path
    d="M742 321.4l44.5-56.4c6.3 2 13 3.4 20 3.4 36.6 0 66.2-29.6 66.2-66.2S843.1 136 806.5 136s-66.2 29.6-66.2 66.2c0 12.6 3.7 24.2 9.8 34.2l-45.4 57.5c-55.8-35.9-121.8-57.1-192.8-57.1-70.9 0-137 21.2-192.8 57.1l-45.4-57.5c6.1-10 9.8-21.6 9.8-34.2 0-36.6-29.6-66.2-66.2-66.2s-66.2 29.6-66.2 66.2 29.6 66.2 66.2 66.2c7 0 13.7-1.4 20-3.4l44.5 56.4c-77.9 65.8-127.7 163.9-127.7 273.2v244.9c0 8.4 0.7 16.6 1.3 24.9h713c0.6-8.3 1.3-16.5 1.3-24.9V594.6c0-109.3-49.8-207.4-127.7-273.2z m67.5 294.9c0 48-39.2 87.2-87.2 87.2H301.5c-48 0-87.2-39.2-87.2-87.2s39.2-87.2 87.2-87.2h420.8c48 0 87.2 39.2 87.2 87.2z"
    fill="currentColor" p-id="29783"></path>
  <path
    d="M344.8 551.2c-20 0-36.4 16.4-36.4 36.4v57.3c0 20 16.4 36.4 36.4 36.4s36.4-16.4 36.4-36.4v-57.3c0.1-20-16.3-36.4-36.4-36.4zM679 550.6c-20 0-36.4 16.4-36.4 36.4v57.3c0 20 16.4 36.4 36.4 36.4s36.4-16.4 36.4-36.4V587c0-20-16.4-36.4-36.4-36.4z"
    fill="currentColor" p-id="29784"></path>
</svg>
