<!--
 * @Author: your name
 * @Date: 2022-03-29 14:37:38
 * @LastEditTime: 2022-03-29 14:37:53
 * @LastEditors: your name
 * @Description: 打开koroFileHeader查看配置 进行设置: https://github.com/OBKoro1/koro1FileHeader/wiki/%E9%85%8D%E7%BD%AE
 * @FilePath: /icloud-monitor-pro/src/icons/svg/oracle.svg
-->
<?xml version="1.0" standalone="no"?>
<!DOCTYPE svg PUBLIC "-//W3C//DTD SVG 1.1//EN" "http://www.w3.org/Graphics/SVG/1.1/DTD/svg11.dtd"><svg t="1648535831222"
  class="icon" viewBox="0 0 1609 1024" version="1.1" xmlns="http://www.w3.org/2000/svg" p-id="19978" width="31.42578125"
  height="20" xmlns:xlink="http://www.w3.org/1999/xlink">
  <path
    d="M265.947429 731.428571c0 93.476571 74.752 169.910857 168.96 175.250286l10.605714 0.292572h718.116571c95.597714 0 173.787429-73.142857 179.2-165.229715a10.605714 10.605714 0 0 1 10.678857-10.313143H1462.857143c0 157.330286-126.976 285.622857-286.208 292.278858l-13.019429 0.292571H445.513143c-160.914286 0-292.132571-124.196571-298.934857-279.844571A12.434286 12.434286 0 0 1 158.72 731.428571h107.227429z m441.563428-371.053714c63.780571 0 115.712 51.053714 115.712 113.810286 0 53.833143-37.888 99.035429-88.795428 111.030857l-10.313143 1.974857 78.628571 82.944H700.635429l-142.701715-150.674286v150.674286H483.254857V360.374857h224.256z m644.242286 0V581.485714H1609.142857l-89.673143 88.210286h-257.316571V360.448h89.6z m-1060.352 0c86.528 0 156.891429 69.339429 156.891428 154.477714 0 81.408-64.365714 148.333714-145.627428 154.038858l-11.190857 0.365714h-134.582857C70.436571 669.257143 0 599.990857 0 514.852571 0 433.371429 64.365714 366.445714 145.773714 360.813714l11.190857-0.365714h134.436572z m951.954286 0l-74.752 73.508572h-155.355429c-45.275429 0-82.139429 36.278857-82.212571 80.896 0 44.617143 36.790857 80.896 82.139428 80.896h228.205714l-74.605714 73.508571h-153.526857c-86.528 0-156.891429-69.266286-156.891429-154.404571 0-85.138286 70.363429-154.404571 156.891429-154.404572H1243.428571zM291.474286 433.956571h-134.582857c-45.275429 0-82.139429 36.278857-82.139429 80.896 0 41.618286 32.109714 75.995429 73.216 80.384l8.996571 0.512h134.509715c45.275429 0 82.139429-36.352 82.139428-80.896 0-44.617143-36.864-80.896-82.139428-80.896z m416.036571 0H557.933714V514.925714h149.577143c22.674286 0 40.96-18.139429 40.96-40.301714a40.813714 40.813714 0 0 0-40.96-40.594286zM1163.629714 0c160.914286 0 292.132571 124.196571 298.934857 279.844571a12.434286 12.434286 0 0 1-12.434285 12.726858h-106.934857c0-93.476571-74.752-169.910857-168.96-175.250286l-10.605715-0.292572H445.513143c-95.597714 0-173.787429 73.142857-179.2 165.229715A10.605714 10.605714 0 0 1 255.634286 292.571429H146.285714C146.285714 135.241143 273.261714 6.948571 432.493714 0.292571L445.513143 0h718.116571z"
    p-id="19979" fill="currentColor"></path>
</svg>
