<?xml version="1.0" standalone="no"?><!DOCTYPE svg PUBLIC "-//W3C//DTD SVG 1.1//EN" "http://www.w3.org/Graphics/SVG/1.1/DTD/svg11.dtd"><svg t="1648534784520" class="icon" viewBox="0 0 1024 1024" version="1.1" xmlns="http://www.w3.org/2000/svg" p-id="11718" width="20" height="20" xmlns:xlink="http://www.w3.org/1999/xlink"><defs><style type="text/css">@font-face { font-family: feedback-iconfont; src: url("//at.alicdn.com/t/font_1031158_u69w8yhxdu.woff2?t=1630033759944") format("woff2"), url("//at.alicdn.com/t/font_1031158_u69w8yhxdu.woff?t=1630033759944") format("woff"), url("//at.alicdn.com/t/font_1031158_u69w8yhxdu.ttf?t=1630033759944") format("truetype"); }
</style></defs><path d="M916.210526 0H107.789474a80.842105 80.842105 0 0 0-80.842106 80.842105v161.684211a80.842105 80.842105 0 0 0 80.842106 80.842105h808.421052a80.842105 80.842105 0 0 0 80.842106-80.842105V80.842105a80.842105 80.842105 0 0 0-80.842106-80.842105z m26.947369 242.526316a26.947368 26.947368 0 0 1-26.947369 26.947368H107.789474a26.947368 26.947368 0 0 1-26.947369-26.947368V80.842105a26.947368 26.947368 0 0 1 26.947369-26.947368h808.421052a26.947368 26.947368 0 0 1 26.947369 26.947368z" p-id="11719"></path><path d="M843.452632 112.909474A45.541053 45.541053 0 1 0 889.263158 158.450526a45.541053 45.541053 0 0 0-45.810526-45.541052zM700.631579 112.909474a45.541053 45.541053 0 1 0 45.541053 45.541052A45.541053 45.541053 0 0 0 700.631579 112.909474zM558.888421 131.503158H177.313684a26.947368 26.947368 0 0 0 0 53.894737h381.574737a26.947368 26.947368 0 0 0 0-53.894737zM916.210526 700.631579H107.789474a80.842105 80.842105 0 0 0-80.842106 80.842105v161.684211a80.842105 80.842105 0 0 0 80.842106 80.842105h808.421052a80.842105 80.842105 0 0 0 80.842106-80.842105v-161.684211a80.842105 80.842105 0 0 0-80.842106-80.842105z m26.947369 242.526316a26.947368 26.947368 0 0 1-26.947369 26.947368H107.789474a26.947368 26.947368 0 0 1-26.947369-26.947368v-161.684211a26.947368 26.947368 0 0 1 26.947369-26.947368h808.421052a26.947368 26.947368 0 0 1 26.947369 26.947368z" p-id="11720"></path><path d="M843.452632 813.541053a45.541053 45.541053 0 1 0 45.810526 45.541052 45.541053 45.541053 0 0 0-45.810526-45.541052zM700.631579 813.541053a45.541053 45.541053 0 1 0 45.541053 45.541052A45.541053 45.541053 0 0 0 700.631579 813.541053zM558.888421 832.134737H177.313684a26.947368 26.947368 0 0 0 0 53.894737h381.574737a26.947368 26.947368 0 0 0 0-53.894737zM916.210526 350.315789H107.789474a80.842105 80.842105 0 0 0-80.842106 80.842106v161.68421a80.842105 80.842105 0 0 0 80.842106 80.842106h808.421052a80.842105 80.842105 0 0 0 80.842106-80.842106v-161.68421a80.842105 80.842105 0 0 0-80.842106-80.842106z m26.947369 242.526316a26.947368 26.947368 0 0 1-26.947369 26.947369H107.789474a26.947368 26.947368 0 0 1-26.947369-26.947369v-161.68421a26.947368 26.947368 0 0 1 26.947369-26.947369h808.421052a26.947368 26.947368 0 0 1 26.947369 26.947369z" p-id="11721"></path><path d="M843.452632 463.225263a45.541053 45.541053 0 1 0 45.810526 45.541053 45.541053 45.541053 0 0 0-45.810526-45.541053zM700.631579 463.225263a45.541053 45.541053 0 1 0 45.541053 45.541053A45.541053 45.541053 0 0 0 700.631579 463.225263zM558.888421 481.818947H177.313684a26.947368 26.947368 0 0 0 0 53.894737h381.574737a26.947368 26.947368 0 0 0 0-53.894737z" p-id="11722"></path></svg>
