<?xml version="1.0" standalone="no"?><!DOCTYPE svg PUBLIC "-//W3C//DTD SVG 1.1//EN" "http://www.w3.org/Graphics/SVG/1.1/DTD/svg11.dtd"><svg t="1642130132741" class="icon" viewBox="0 0 1024 1024" version="1.1" xmlns="http://www.w3.org/2000/svg" p-id="15688" xmlns:xlink="http://www.w3.org/1999/xlink" width="16" height="16"><defs><style type="text/css"></style></defs><path d="M950.186667 128a59.733333 59.733333 0 0 0-48.64-48.213333c-162.986667-26.453333-298.666667 0-408.746667 78.933333A462.506667 462.506667 0 0 0 401.493333 247.466667h-5.973333a480.853333 480.853333 0 0 0-312.746667 232.106666 60.16 60.16 0 0 0 50.773334 91.306667 58.453333 58.453333 0 0 0 25.173333-5.546667 378.453333 378.453333 0 0 1 144.213333-31.146666l72.96 78.08q17.92 19.2 37.12 37.12l77.226667 71.253333a366.506667 366.506667 0 0 1-31.146667 147.2A59.733333 59.733333 0 0 0 473.6 938.666667a61.44 61.44 0 0 0 40.106667 14.933333 59.306667 59.306667 0 0 0 31.146666-8.533333 475.733333 475.733333 0 0 0 233.813334-312.32v-5.12a486.826667 486.826667 0 0 0 92.16-94.72C950.186667 426.666667 976.213333 289.28 950.186667 128zM321.28 355.413333a704.426667 704.426667 0 0 0-35.84 103.253334 440.746667 440.746667 0 0 0-107.946667 19.2 426.666667 426.666667 0 0 1 143.786667-122.453334z m226.986667 494.933334a465.92 465.92 0 0 0 19.2-108.8 682.666667 682.666667 0 0 0 104.533333-35.413334 433.493333 433.493333 0 0 1-123.733333 144.213334zM810.666667 487.253333a486.4 486.4 0 0 1-273.92 170.666667l-71.68-63.573333c-11.52-10.666667-22.186667-21.76-32.853334-33.28L366.933333 491.52C384 411.306667 483.413333 98.133333 876.373333 154.026667A443.733333 443.733333 0 0 1 810.666667 487.253333z" p-id="15689"></path><path d="M656.64 240.213333a131.413333 131.413333 0 1 0 132.266667 131.413334 131.84 131.84 0 0 0-132.266667-131.413334z m0 194.56a63.146667 63.146667 0 1 1 64-63.146666 63.573333 63.573333 0 0 1-64 63.146666zM289.706667 607.146667a108.8 108.8 0 0 0-88.32 32.853333c-42.666667 39.253333-95.146667 147.2-132.266667 230.826667a56.746667 56.746667 0 0 0 10.24 62.293333 57.6 57.6 0 0 0 42.666667 18.346667 62.72 62.72 0 0 0 19.626666-2.986667A1125.973333 1125.973333 0 0 0 298.666667 871.68c70.4-39.253333 107.946667-79.786667 115.2-123.733333a108.8 108.8 0 0 0-33.706667-91.306667 135.68 135.68 0 0 0-90.453333-49.493333z m-30.293334 197.546666c-42.666667 23.893333-75.093333 40.533333-99.84 52.053334A676.266667 676.266667 0 0 1 256 695.04a38.826667 38.826667 0 0 1 25.6-11.946667 58.026667 58.026667 0 0 1 34.986667 18.346667c0 2.133333 3.84 4.693333 6.4 8.106667s14.506667 17.066667 13.226666 25.6-9.813333 32.853333-76.8 69.546666z" p-id="15690"></path></svg>