<?xml version="1.0" standalone="no"?>
<!DOCTYPE svg PUBLIC "-//W3C//DTD SVG 1.1//EN" "http://www.w3.org/Graphics/SVG/1.1/DTD/svg11.dtd"><svg t="1648537561835"
  class="icon" viewBox="0 0 1024 1024" version="1.1" xmlns="http://www.w3.org/2000/svg" p-id="21818" width="20"
  height="20" xmlns:xlink="http://www.w3.org/1999/xlink">
  <path
    d="M603.672 604.506c49.985-49.985 49.985-131.027 0-181.012-49.985-49.985-417.904-236.898-417.904-236.898s186.907 367.925 236.892 417.91 131.027 49.985 181.012 0z"
    p-id="21819" fill="currentColor"></path>
  <path
    d="M512 46.546h-46.545v209.469c0 12.845 10.413 23.259 23.259 23.259h0.028c12.845 0 23.259-10.413 23.259-23.259V93.091c56.573 0 111.429 11.07 163.044 32.901 49.878 21.097 94.682 51.308 133.169 89.795 38.487 38.487 68.698 83.292 89.795 133.169 21.831 51.615 32.9 106.471 32.9 163.044 0 56.573-11.07 111.429-32.901 163.044-21.097 49.878-51.308 94.682-89.795 133.169-38.487 38.487-83.292 68.698-133.169 89.795C623.429 919.84 568.573 930.909 512 930.909s-111.429-11.07-163.044-32.901c-49.878-21.097-94.682-51.308-133.169-89.795-38.487-38.487-68.698-83.292-89.795-133.169C104.16 623.429 93.091 568.573 93.091 512c0-32.907 3.748-65.232 11.179-96.677 2.842-12.026-4.227-24.171-16.085-27.65-12.793-3.753-26.126 3.991-29.19 16.966-8.139 34.465-12.45 70.409-12.45 107.36 0 257.063 208.391 465.454 465.453 465.454 257.059 0.001 465.456-208.397 465.456-465.456 0-257.061-208.391-465.451-465.454-465.451z"
    p-id="21820" fill="currentColor"></path>
</svg>
